<svg width="64" height="80" viewBox="0 0 64 80" fill="none" xmlns="http://www.w3.org/2000/svg">
<path d="M31.8573 7.58441C30.9877 7.58441 30.2825 6.87921 30.2825 6.00961V1.5748C30.2825 0.705197 30.9877 0 31.8573 0C32.7269 0 33.4321 0.705197 33.4321 1.5748V6.00961C33.4321 6.87937 32.7271 7.58441 31.8573 7.58441ZM27.2918 7.2485L24.1559 4.1126C23.541 3.49764 22.5438 3.49764 21.9288 4.1126C21.3139 4.72756 21.3139 5.72472 21.9288 6.33968L25.0647 9.47559C25.6797 10.0906 26.6769 10.0906 27.2918 9.47559C27.9068 8.86063 27.9068 7.86346 27.2918 7.2485ZM53.7268 9.47559C54.3417 10.0906 55.3389 10.0906 55.9539 9.47559L59.0898 6.33968C59.7047 5.72472 59.7047 4.72756 59.0898 4.1126C58.4748 3.49764 57.4776 3.49764 56.8627 4.1126L53.7268 7.2485C53.1118 7.86346 53.1118 8.86063 53.7268 9.47559ZM25.4006 14.0157C25.4006 13.1461 24.6954 12.4409 23.8258 12.4409H19.5666C18.697 12.4409 17.9918 13.1461 17.9918 14.0157C17.9918 14.8854 18.697 15.5906 19.5666 15.5906H23.8258C24.6956 15.5906 25.4006 14.8854 25.4006 14.0157ZM50.755 6.00961V1.5748C50.755 0.705197 50.0498 0 49.1802 0C48.3106 0 47.6054 0.705197 47.6054 1.5748V6.00961C47.6054 6.87921 48.3106 7.58441 49.1802 7.58441C50.0498 7.58441 50.755 6.87937 50.755 6.00961ZM63.6991 14.0157C63.6991 13.1461 62.9939 12.4409 62.1243 12.4409H57.2117C56.3421 12.4409 55.6369 13.1461 55.6369 14.0157C55.6369 14.8854 56.3421 15.5906 57.2117 15.5906H62.1243C62.994 15.5906 63.6991 14.8854 63.6991 14.0157ZM58.8902 35.6743L55.0367 40.9553C55.6904 41.2043 56.2965 41.5896 56.808 42.1011C58.5317 43.8244 58.7797 46.5329 57.3975 48.5408L48.818 61.1624C40.9255 73.2866 30.5325 77.5348 25.3858 79.7235C24.9569 79.9058 24.4965 79.9997 24.0304 79.9997L1.87718 80C0.705059 80 -0.056358 78.7652 0.470099 77.718L4.83892 69.0272C5.31876 68.0726 5.54317 67.0235 5.50396 65.9702C3.6627 62.3387 3.0123 58.1011 3.67325 53.9961C3.83734 52.9761 4.13592 50.9162 4.53703 48.0394C4.90033 45.4335 4.8827 42.7948 4.48506 40.1968L3.46963 33.5625C3.17577 31.2778 4.82159 28.9918 7.18931 28.8616C8.79356 28.7734 10.3737 29.1099 11.7173 29.8983C12.5178 28.2906 14.3314 27.2847 16.1397 27.6559C18.3021 28.0998 20.1748 29.3647 21.2928 31.1665L22.5252 29.0331C23.571 27.2219 26.2984 28.7967 25.2526 30.6079L22.5205 35.3378C22.6918 37.0107 22.6416 38.6846 22.3773 40.3203L27.0899 35.6077C28.0184 33.6915 33.7021 21.9682 36.5191 16.3002C36.4776 16.2328 35.9723 15.3748 35.0276 15.3748C34.5096 15.3748 33.8669 15.6929 33.5646 16.2189L32.3408 18.3353C31.3019 20.1346 28.5743 18.5598 29.6134 16.7605L30.837 14.6441C31.6986 13.1512 33.3866 12.2252 35.0213 12.2252C36.6559 12.2252 37.8573 13.1402 38.0501 13.3009C38.8147 11.8009 41.7178 9.74866 44.7857 11.5301C47.0455 12.8424 47.7376 15.5043 46.8999 17.6614L46.5047 18.6424C47.8748 18.7353 49.4521 19.4896 50.3054 21.1586C51.6849 19.5583 54.434 18.8088 56.9391 20.6378C58.8628 22.0424 59.0458 25.0751 57.3958 27.1076L56.7304 27.9931C57.5622 28.3191 58.315 28.8706 58.8909 29.6276C60.241 31.402 60.2047 33.8731 58.8902 35.6743ZM33.8999 28.7976L42.471 20.2265L43.978 16.4847C44.946 14.4975 41.723 12.9272 40.7548 14.9145C40.3406 15.7646 36.9386 22.5584 33.8999 28.7976ZM6.58285 33.0858L7.59829 39.7203C7.99136 42.2877 8.05167 44.8907 7.77907 47.4721C9.78978 43.0735 10.308 40.5186 10.5959 37.9063L11.094 33.3833C10.1734 32.4102 8.82537 31.9093 7.44553 32.0008C7.01104 32.0294 6.49797 32.4359 6.58285 33.0858ZM54.6049 30.8208L38.8109 51.8367C38.2884 52.532 37.2347 52.5693 36.6058 52.1494C35.977 51.7296 35.7704 50.6397 36.2931 49.9444L54.8778 25.2151C55.3625 24.6939 55.6572 23.6728 54.9745 23.1039C53.989 22.2827 52.9597 22.8499 52.6972 23.2076L33.7693 45.0512C33.1997 45.7085 32.2049 45.7794 31.5479 45.2101C30.8906 44.6405 30.8195 43.6458 31.389 42.9887L47.3553 24.5628C47.932 23.8973 47.8959 22.8883 47.2732 22.2657C46.6145 21.6072 45.5444 21.6071 44.8871 22.2649L19.4844 47.668C18.8652 48.2704 17.8561 48.288 17.2832 47.6934C16.6797 47.0669 16.663 46.3247 17.1336 45.5641C19.2145 42.1998 19.9309 38.1913 19.1852 34.2775C18.8471 32.502 17.3958 31.0898 15.5753 30.7546C14.8849 30.6276 14.5003 31.2255 14.4613 31.5798L13.7265 38.251C13.4052 41.1672 12.6624 44.0172 11.5184 46.7219C10.3602 49.4611 9.55199 51.3424 9.11655 52.3137C7.51262 55.894 7.21482 59.883 8.27829 63.5458C8.949 65.8561 8.72695 68.305 7.65278 70.4417L4.43136 76.8504L23.9361 76.8499C34.6462 72.7102 41.108 67.0917 46.221 59.3798L54.803 46.755C55.6775 45.5043 54.7326 43.5764 52.9691 43.7885L42.3599 58.3274C41.8473 59.0299 40.806 59.0901 40.1594 58.6713C39.5128 58.2526 39.303 57.1734 39.8154 56.4709L56.4005 33.7427C57.3997 32.3597 56.1499 30.5765 54.6049 30.8208ZM27.4321 22.1101C26.5624 22.1101 25.8573 22.8151 25.8573 23.6849C25.8573 24.5546 26.5624 25.2597 27.4321 25.2597C28.3019 25.2597 29.0069 24.5546 29.0069 23.6849C29.0069 22.8151 28.3019 22.1101 27.4321 22.1101Z" fill="#2DA660" fill-opacity="0.6"/>
</svg>
