<svg width="60" height="60" viewBox="0 0 60 60" fill="none" xmlns="http://www.w3.org/2000/svg">
<g clip-path="url(#clip0)">
<path fill-rule="evenodd" clip-rule="evenodd" d="M23.0905 41.6359C23.3355 41.8784 23.6555 42.0009 23.9755 42.0009C24.2955 42.0009 24.6155 41.8784 24.858 41.6334C25.3455 41.1459 25.3455 40.3534 24.858 39.8659L15.2955 30.3034L17.0977 28.283C17.2327 28.1823 17.3476 28.0545 17.4337 27.9064L26.5955 17.6359C26.658 17.5859 26.718 17.5309 26.7705 17.4684C34.453 8.59336 46.6555 2.68587 57.503 2.49587C57.368 9.71587 54.728 17.6659 50.1605 24.5059C49.778 25.0809 49.9355 25.8584 50.508 26.2409C51.0755 26.6209 51.8555 26.4709 52.2405 25.8959C57.4205 18.1384 60.173 9.37586 60.0005 1.22337C59.9855 0.555865 59.448 0.0158652 58.778 0.000865228C46.8636 -0.268624 33.8367 5.75793 25.2636 15.3941C17.0697 15.5369 9.39011 18.7916 3.50003 24.6817C3.16503 25.0167 3.04753 25.5117 3.19753 25.9617C3.34753 26.4117 3.73503 26.7367 4.20503 26.8042L13.832 28.1837L12.6405 29.5184C12.2005 30.0134 12.2205 30.7659 12.6905 31.2359L23.0905 41.6359ZM15.8315 25.9441L22.8924 18.0349C17.0746 18.6161 11.6305 20.9213 7.16003 24.7017L15.8315 25.9441Z" fill="#28CB69"/>
<path d="M42.8326 23.4175C41.1626 23.4175 39.5926 22.7675 38.4126 21.5875C35.9751 19.15 35.9751 15.185 38.4126 12.7475C40.7701 10.3875 44.8876 10.385 47.2501 12.7475C49.6876 15.185 49.6876 19.15 47.2501 21.5875C46.0701 22.7675 44.5001 23.4175 42.8326 23.4175ZM42.8326 13.42C41.8301 13.42 40.8901 13.81 40.1801 14.5175C38.7176 15.98 38.7176 18.36 40.1801 19.8225C41.5926 21.2375 44.0651 21.24 45.4826 19.8225C46.9451 18.36 46.9451 15.98 45.4826 14.5175C44.7751 13.8075 43.8326 13.42 42.8326 13.42ZM46.3676 20.705H46.3926H46.3676Z" fill="#28CB69"/>
<path d="M1.25005 60.0002C0.92255 60.0002 0.60255 59.8727 0.36505 59.6352C0.0400504 59.3102 -0.0799496 58.8327 0.0525504 58.3927C0.46005 57.0252 4.13255 44.9402 6.80755 42.2652C9.82005 39.2527 14.7225 39.2527 17.735 42.2652C20.7475 45.2777 20.7475 50.1802 17.735 53.1927C15.06 55.8677 2.97755 59.5402 1.60755 59.9502C1.49255 59.9827 1.37005 60.0002 1.25005 60.0002ZM12.2725 42.5027C10.935 42.5027 9.59505 43.0127 8.57505 44.0302C7.13255 45.4752 4.73255 51.9277 3.15005 56.8477C8.07005 55.2627 14.525 52.8627 15.9675 51.4202C18.005 49.3827 18.005 46.0652 15.9675 44.0277C14.95 43.0127 13.61 42.5027 12.2725 42.5027Z" fill="#28CB69"/>
<path d="M43.75 60C34.79 60 27.5 52.71 27.5 43.75C27.5 34.79 34.79 27.5 43.75 27.5C52.71 27.5 60 34.79 60 43.75C60 52.71 52.71 60 43.75 60ZM43.75 30C36.17 30 30 36.1675 30 43.75C30 51.3325 36.17 57.5 43.75 57.5C51.33 57.5 57.5 51.3325 57.5 43.75C57.5 36.1675 51.33 30 43.75 30Z" fill="#28CB69"/>
<path d="M41.2506 50.0005C40.9181 50.0005 40.6006 49.868 40.3656 49.6355L35.3656 44.6355C34.8781 44.148 34.8781 43.3555 35.3656 42.868C35.8531 42.3805 36.6456 42.3805 37.1331 42.868L41.1881 46.923L49.0581 37.928C49.5131 37.4055 50.3031 37.3555 50.8206 37.8105C51.3406 38.2655 51.3931 39.0555 50.9381 39.5755L42.1881 49.5755C41.9606 49.8355 41.6356 49.9905 41.2906 50.0005C41.2781 50.0005 41.2656 50.0005 41.2506 50.0005Z" fill="#28CB69"/>
</g>
<defs>
<clipPath id="clip0">
<rect width="60" height="60" fill="white"/>
</clipPath>
</defs>
</svg>
