<svg width="60" height="60" viewBox="0 0 60 60" fill="none" xmlns="http://www.w3.org/2000/svg">
<path d="M16.875 29.1797H13.125C12.1542 29.1797 11.3672 29.9667 11.3672 30.9375C11.3672 31.9083 12.1542 32.6953 13.125 32.6953H16.875C17.8458 32.6953 18.6328 31.9083 18.6328 30.9375C18.6328 29.9667 17.8458 29.1797 16.875 29.1797Z" fill="#2DA660" fill-opacity="0.6"/>
<path d="M16.875 36.6797H13.125C12.1542 36.6797 11.3672 37.4667 11.3672 38.4375C11.3672 39.4083 12.1542 40.1953 13.125 40.1953H16.875C17.8458 40.1953 18.6328 39.4083 18.6328 38.4375C18.6328 37.4667 17.8458 36.6797 16.875 36.6797Z" fill="#2DA660" fill-opacity="0.6"/>
<path d="M16.875 44.1797H13.125C12.1542 44.1797 11.3672 44.9667 11.3672 45.9375C11.3672 46.9083 12.1542 47.6953 13.125 47.6953H16.875C17.8458 47.6953 18.6328 46.9083 18.6328 45.9375C18.6328 44.9667 17.8458 44.1797 16.875 44.1797Z" fill="#2DA660" fill-opacity="0.6"/>
<path d="M31.875 29.1797H28.125C27.1542 29.1797 26.3672 29.9667 26.3672 30.9375C26.3672 31.9083 27.1542 32.6953 28.125 32.6953H31.875C32.8458 32.6953 33.6328 31.9083 33.6328 30.9375C33.6328 29.9667 32.8458 29.1797 31.875 29.1797Z" fill="#2DA660" fill-opacity="0.6"/>
<path d="M31.875 36.6797H28.125C27.1542 36.6797 26.3672 37.4667 26.3672 38.4375C26.3672 39.4083 27.1542 40.1953 28.125 40.1953H31.875C32.8458 40.1953 33.6328 39.4083 33.6328 38.4375C33.6328 37.4667 32.8458 36.6797 31.875 36.6797Z" fill="#2DA660" fill-opacity="0.6"/>
<path d="M31.875 44.1797H28.125C27.1542 44.1797 26.3672 44.9667 26.3672 45.9375C26.3672 46.9083 27.1542 47.6953 28.125 47.6953H31.875C32.8458 47.6953 33.6328 46.9083 33.6328 45.9375C33.6328 44.9667 32.8458 44.1797 31.875 44.1797Z" fill="#2DA660" fill-opacity="0.6"/>
<path d="M46.875 29.1797H43.125C42.1542 29.1797 41.3672 29.9667 41.3672 30.9375C41.3672 31.9083 42.1542 32.6953 43.125 32.6953H46.875C47.8458 32.6953 48.6328 31.9083 48.6328 30.9375C48.6328 29.9667 47.8458 29.1797 46.875 29.1797Z" fill="#2DA660" fill-opacity="0.6"/>
<path d="M46.875 36.6797H43.125C42.1542 36.6797 41.3672 37.4667 41.3672 38.4375C41.3672 39.4083 42.1542 40.1953 43.125 40.1953H46.875C47.8458 40.1953 48.6328 39.4083 48.6328 38.4375C48.6328 37.4667 47.8458 36.6797 46.875 36.6797Z" fill="#2DA660" fill-opacity="0.6"/>
<path d="M46.875 44.1797H43.125C42.1542 44.1797 41.3672 44.9667 41.3672 45.9375C41.3672 46.9083 42.1542 47.6953 43.125 47.6953H46.875C47.8458 47.6953 48.6328 46.9083 48.6328 45.9375C48.6328 44.9667 47.8458 44.1797 46.875 44.1797Z" fill="#2DA660" fill-opacity="0.6"/>
<path d="M54.7266 7.61719H50.5078V4.6875C50.5078 3.71672 49.7208 2.92969 48.75 2.92969C47.7792 2.92969 46.9922 3.71672 46.9922 4.6875V7.61719H31.7578V4.6875C31.7578 3.71672 30.9708 2.92969 30 2.92969C29.0292 2.92969 28.2422 3.71672 28.2422 4.6875V7.61719H13.0078V4.6875C13.0078 3.71672 12.2208 2.92969 11.25 2.92969C10.2792 2.92969 9.49219 3.71672 9.49219 4.6875V7.61719H5.27344C2.36566 7.61719 0 9.98285 0 12.8906V51.7969C0 54.7046 2.36566 57.0703 5.27344 57.0703H54.7266C57.6343 57.0703 60 54.7046 60 51.7969C60 50.6623 60 13.8779 60 12.8906C60 9.98285 57.6343 7.61719 54.7266 7.61719ZM3.51562 12.8906C3.51562 11.9214 4.30418 11.1328 5.27344 11.1328H9.49219V14.0625C9.49219 15.0333 10.2792 15.8203 11.25 15.8203C12.2208 15.8203 13.0078 15.0333 13.0078 14.0625V11.1328H28.2422V14.0625C28.2422 15.0333 29.0292 15.8203 30 15.8203C30.9708 15.8203 31.7578 15.0333 31.7578 14.0625V11.1328H46.9922V14.0625C46.9922 15.0333 47.7792 15.8203 48.75 15.8203C49.7208 15.8203 50.5078 15.0333 50.5078 14.0625V11.1328H54.7266C55.6958 11.1328 56.4844 11.9214 56.4844 12.8906V19.8047H3.51562V12.8906ZM54.7266 53.5547H5.27344C4.30418 53.5547 3.51562 52.7661 3.51562 51.7969V23.3203H56.4844V51.7969C56.4844 52.7661 55.6958 53.5547 54.7266 53.5547Z" fill="#2DA660" fill-opacity="0.6"/>
</svg>
