<svg width="70" height="70" viewBox="0 0 70 70" fill="none" xmlns="http://www.w3.org/2000/svg">
<path d="M19.6875 34.043H15.3125C14.1799 34.043 13.2617 34.9612 13.2617 36.0938C13.2617 37.2263 14.1799 38.1445 15.3125 38.1445H19.6875C20.8201 38.1445 21.7383 37.2263 21.7383 36.0938C21.7383 34.9612 20.8201 34.043 19.6875 34.043Z" fill="#2DA660" fill-opacity="0.6"/>
<path d="M19.6875 42.793H15.3125C14.1799 42.793 13.2617 43.7112 13.2617 44.8438C13.2617 45.9763 14.1799 46.8945 15.3125 46.8945H19.6875C20.8201 46.8945 21.7383 45.9763 21.7383 44.8438C21.7383 43.7112 20.8201 42.793 19.6875 42.793Z" fill="#2DA660" fill-opacity="0.6"/>
<path d="M19.6875 51.543H15.3125C14.1799 51.543 13.2617 52.4612 13.2617 53.5938C13.2617 54.7263 14.1799 55.6445 15.3125 55.6445H19.6875C20.8201 55.6445 21.7383 54.7263 21.7383 53.5938C21.7383 52.4612 20.8201 51.543 19.6875 51.543Z" fill="#2DA660" fill-opacity="0.6"/>
<path d="M37.1875 34.043H32.8125C31.6799 34.043 30.7617 34.9612 30.7617 36.0938C30.7617 37.2263 31.6799 38.1445 32.8125 38.1445H37.1875C38.3201 38.1445 39.2383 37.2263 39.2383 36.0938C39.2383 34.9612 38.3201 34.043 37.1875 34.043Z" fill="#2DA660" fill-opacity="0.6"/>
<path d="M37.1875 42.793H32.8125C31.6799 42.793 30.7617 43.7112 30.7617 44.8438C30.7617 45.9763 31.6799 46.8945 32.8125 46.8945H37.1875C38.3201 46.8945 39.2383 45.9763 39.2383 44.8438C39.2383 43.7112 38.3201 42.793 37.1875 42.793Z" fill="#2DA660" fill-opacity="0.6"/>
<path d="M37.1875 51.543H32.8125C31.6799 51.543 30.7617 52.4612 30.7617 53.5938C30.7617 54.7263 31.6799 55.6445 32.8125 55.6445H37.1875C38.3201 55.6445 39.2383 54.7263 39.2383 53.5938C39.2383 52.4612 38.3201 51.543 37.1875 51.543Z" fill="#2DA660" fill-opacity="0.6"/>
<path d="M54.6875 34.043H50.3125C49.1799 34.043 48.2617 34.9612 48.2617 36.0938C48.2617 37.2263 49.1799 38.1445 50.3125 38.1445H54.6875C55.8201 38.1445 56.7383 37.2263 56.7383 36.0938C56.7383 34.9612 55.8201 34.043 54.6875 34.043Z" fill="#2DA660" fill-opacity="0.6"/>
<path d="M54.6875 42.793H50.3125C49.1799 42.793 48.2617 43.7112 48.2617 44.8438C48.2617 45.9763 49.1799 46.8945 50.3125 46.8945H54.6875C55.8201 46.8945 56.7383 45.9763 56.7383 44.8438C56.7383 43.7112 55.8201 42.793 54.6875 42.793Z" fill="#2DA660" fill-opacity="0.6"/>
<path d="M54.6875 51.543H50.3125C49.1799 51.543 48.2617 52.4612 48.2617 53.5938C48.2617 54.7263 49.1799 55.6445 50.3125 55.6445H54.6875C55.8201 55.6445 56.7383 54.7263 56.7383 53.5938C56.7383 52.4612 55.8201 51.543 54.6875 51.543Z" fill="#2DA660" fill-opacity="0.6"/>
<path d="M63.8477 8.88672H58.9258V5.46875C58.9258 4.33617 58.0076 3.41797 56.875 3.41797C55.7424 3.41797 54.8242 4.33617 54.8242 5.46875V8.88672H37.0508V5.46875C37.0508 4.33617 36.1326 3.41797 35 3.41797C33.8674 3.41797 32.9492 4.33617 32.9492 5.46875V8.88672H15.1758V5.46875C15.1758 4.33617 14.2576 3.41797 13.125 3.41797C11.9924 3.41797 11.0742 4.33617 11.0742 5.46875V8.88672H6.15234C2.75994 8.88672 0 11.6467 0 15.0391V60.4297C0 63.8221 2.75994 66.582 6.15234 66.582H63.8477C67.2401 66.582 70 63.8221 70 60.4297C70 59.106 70 16.1909 70 15.0391C70 11.6467 67.2401 8.88672 63.8477 8.88672ZM4.10156 15.0391C4.10156 13.9083 5.02154 12.9883 6.15234 12.9883H11.0742V16.4062C11.0742 17.5388 11.9924 18.457 13.125 18.457C14.2576 18.457 15.1758 17.5388 15.1758 16.4062V12.9883H32.9492V16.4062C32.9492 17.5388 33.8674 18.457 35 18.457C36.1326 18.457 37.0508 17.5388 37.0508 16.4062V12.9883H54.8242V16.4062C54.8242 17.5388 55.7424 18.457 56.875 18.457C58.0076 18.457 58.9258 17.5388 58.9258 16.4062V12.9883H63.8477C64.9785 12.9883 65.8984 13.9083 65.8984 15.0391V23.1055H4.10156V15.0391ZM63.8477 62.4805H6.15234C5.02154 62.4805 4.10156 61.5605 4.10156 60.4297V27.207H65.8984V60.4297C65.8984 61.5605 64.9785 62.4805 63.8477 62.4805Z" fill="#2DA660" fill-opacity="0.6"/>
</svg>
