<svg width="16" height="17" viewBox="0 0 16 17" fill="none" xmlns="http://www.w3.org/2000/svg">
<g clip-path="url(#clip0)">
<path d="M14.5268 3.20879H11.9831V0.665039C11.9831 0.406164 11.7732 0.196289 11.5143 0.196289H1.47266C1.21378 0.196289 1.00391 0.406164 1.00391 0.665039V12.7151C1.00391 12.9739 1.21378 13.1838 1.47266 13.1838H4.01641V15.7275C4.01641 15.9864 4.22628 16.1963 4.48516 16.1963H14.5268C14.7857 16.1963 14.9956 15.9864 14.9956 15.7275V3.67754C14.9956 3.41866 14.7857 3.20879 14.5268 3.20879ZM1.94141 12.2463V1.13379H11.0456V3.6697C11.0455 3.67232 11.0452 3.67488 11.0452 3.67754C11.0452 3.6802 11.0455 3.68276 11.0456 3.68541V12.2463H1.94141ZM14.0581 15.2588H4.95391V13.1838H11.5143C11.7732 13.1838 11.9831 12.9739 11.9831 12.7151V4.14629H14.0581V15.2588Z" fill="white"/>
</g>
<defs>
<clipPath id="clip0">
<rect width="16" height="16" fill="white" transform="translate(0 0.196289)"/>
</clipPath>
</defs>
</svg>
