<svg width="12" height="9" viewBox="0 0 12 9" fill="none" xmlns="http://www.w3.org/2000/svg">
<path d="M11.8355 2.03407C11.6937 1.91306 11.4937 1.88756 11.3261 1.96917L8.76097 3.21792L6.35412 0.442875C6.26511 0.340219 6.1359 0.28125 6 0.28125C5.86411 0.28125 5.73493 0.340219 5.64589 0.442875L3.23904 3.2179L0.67395 1.96915C0.506302 1.88756 0.306286 1.91304 0.16449 2.03405C0.0226927 2.15505 -0.0339323 2.3486 0.0202786 2.52696L1.80153 8.38634C1.86155 8.5838 2.04364 8.71875 2.25001 8.71875H9.75C9.95635 8.71875 10.1385 8.5838 10.1985 8.38636L11.9797 2.52698C12.0339 2.34862 11.9773 2.15508 11.8355 2.03407ZM9.40254 7.78125H2.59742L1.22982 3.28247L3.15221 4.21835C3.34308 4.31126 3.57244 4.26434 3.7115 4.10402L6 1.46543L8.28854 4.10402C8.42757 4.26436 8.657 4.31123 8.8478 4.21835L10.7702 3.28247L9.40254 7.78125Z" fill="#28CB69"/>
</svg>
