<svg width="10" height="10" viewBox="0 0 10 10" fill="none" xmlns="http://www.w3.org/2000/svg">
<g clip-path="url(#clip0)">
<path d="M6.37921 3.62354C6.24986 3.62354 6.14502 3.72837 6.14502 3.85773V8.28396C6.14502 8.41322 6.24986 8.51815 6.37921 8.51815C6.50857 8.51815 6.6134 8.41322 6.6134 8.28396V3.85773C6.6134 3.72837 6.50857 3.62354 6.37921 3.62354Z" fill="#CA2C2C"/>
<path d="M3.61603 3.62354C3.48667 3.62354 3.38184 3.72837 3.38184 3.85773V8.28396C3.38184 8.41322 3.48667 8.51815 3.61603 8.51815C3.74538 8.51815 3.85022 8.41322 3.85022 8.28396V3.85773C3.85022 3.72837 3.74538 3.62354 3.61603 3.62354Z" fill="#CA2C2C"/>
<path d="M1.60191 2.97758V8.74757C1.60191 9.08861 1.72696 9.40888 1.94542 9.63868C2.16287 9.86912 2.46549 9.99994 2.7822 10.0005H7.21317C7.52997 9.99994 7.83259 9.86912 8.04995 9.63868C8.2684 9.40888 8.39346 9.08861 8.39346 8.74757V2.97758C8.82772 2.86232 9.10911 2.44279 9.05102 1.99718C8.99284 1.55167 8.61329 1.21841 8.16393 1.21831H6.96489V0.925575C6.96626 0.679399 6.86893 0.443013 6.69465 0.269107C6.52038 0.0952934 6.28363 -0.00149353 6.03746 0.000519052H3.95791C3.71173 -0.00149353 3.47498 0.0952934 3.30071 0.269107C3.12644 0.443013 3.0291 0.679399 3.03048 0.925575V1.21831H1.83143C1.38208 1.21841 1.00253 1.55167 0.944344 1.99718C0.886253 2.44279 1.16765 2.86232 1.60191 2.97758ZM7.21317 9.53211H2.7822C2.38178 9.53211 2.07029 9.18814 2.07029 8.74757V2.99817H7.92507V8.74757C7.92507 9.18814 7.61358 9.53211 7.21317 9.53211ZM3.49886 0.925575C3.4973 0.803631 3.54524 0.686261 3.63178 0.600177C3.71823 0.514093 3.83587 0.466798 3.95791 0.468902H6.03746C6.15949 0.466798 6.27714 0.514093 6.36359 0.600177C6.45013 0.686169 6.49806 0.803631 6.49651 0.925575V1.21831H3.49886V0.925575ZM1.83143 1.6867H8.16393C8.39675 1.6867 8.58548 1.87542 8.58548 2.10824C8.58548 2.34106 8.39675 2.52979 8.16393 2.52979H1.83143C1.59862 2.52979 1.40989 2.34106 1.40989 2.10824C1.40989 1.87542 1.59862 1.6867 1.83143 1.6867Z" fill="#CA2C2C"/>
<path d="M4.99762 3.62354C4.86826 3.62354 4.76343 3.72837 4.76343 3.85773V8.28396C4.76343 8.41322 4.86826 8.51815 4.99762 8.51815C5.12697 8.51815 5.2318 8.41322 5.2318 8.28396V3.85773C5.2318 3.72837 5.12697 3.62354 4.99762 3.62354Z" fill="#CA2C2C"/>
</g>
<defs>
<clipPath id="clip0">
<rect width="10" height="10" fill="white" transform="translate(0 0.000488281)"/>
</clipPath>
</defs>
</svg>
