<svg width="16" height="20" viewBox="0 0 16 20" fill="none" xmlns="http://www.w3.org/2000/svg">
<path d="M15.4455 4.85906L10.7581 0.17168C10.6487 0.0622266 10.4994 0 10.3438 0H2.14062C1.17137 0 0.382812 0.788555 0.382812 1.75781V18.2422C0.382812 19.2114 1.17137 20 2.14062 20H13.8594C14.8286 20 15.6172 19.2114 15.6172 18.2422V5.27344C15.6172 5.11367 15.5501 4.96363 15.4455 4.85906ZM10.9297 2.00051L13.6167 4.6875H11.5156C11.1925 4.6875 10.9297 4.42465 10.9297 4.10156V2.00051ZM13.8594 18.8281H2.14062C1.81754 18.8281 1.55469 18.5653 1.55469 18.2422V1.75781C1.55469 1.43473 1.81754 1.17188 2.14062 1.17188H9.75781V4.10156C9.75781 5.07082 10.5464 5.85938 11.5156 5.85938H14.4453V18.2422C14.4453 18.5653 14.1825 18.8281 13.8594 18.8281Z" fill="#52F995"/>
</svg>
