<svg width="18" height="18" viewBox="0 0 18 18" fill="none" xmlns="http://www.w3.org/2000/svg">
<rect width="18" height="18" rx="9" fill="#CA2C2C"/>
<g clip-path="url(#clip0)">
<path d="M10.485 9.00028L13.2693 6.21601C13.5769 5.90838 13.5769 5.40963 13.2693 5.10248L12.8981 4.7313C12.5904 4.42357 12.0916 4.42357 11.7845 4.7313L9.00028 7.51547L6.21601 4.73072C5.90838 4.42309 5.40963 4.42309 5.10248 4.73072L4.73072 5.1019C4.42309 5.40963 4.42309 5.90838 4.73072 6.21553L7.51547 9.00028L4.7313 11.7845C4.42357 12.0922 4.42357 12.5909 4.7313 12.8981L5.10248 13.2693C5.41011 13.5769 5.90886 13.5769 6.21601 13.2693L9.00028 10.485L11.7845 13.2693C12.0922 13.5769 12.5909 13.5769 12.8981 13.2693L13.2693 12.8981C13.5769 12.5904 13.5769 12.0916 13.2693 11.7845L10.485 9.00028Z" fill="white"/>
</g>
<defs>
<clipPath id="clip0">
<rect width="9" height="9" fill="white" transform="translate(4.5 4.5)"/>
</clipPath>
</defs>
</svg>
