<svg width="335" height="47" viewBox="0 0 335 47" fill="none" xmlns="http://www.w3.org/2000/svg">
<rect x="22" y="1.93945" width="6.71696" height="30.2263" transform="rotate(45 22 1.93945)" fill="white"/>
<rect x="0.625977" y="23.3105" width="6.71696" height="30.2263" transform="rotate(-45 0.625977 23.3105)" fill="white"/>
<path fill-rule="evenodd" clip-rule="evenodd" d="M37.9809 46.3389L14.9678 23.3257L37.9809 0.3125L39.8968 2.22832L35.4268 6.69833L52.0504 23.322L35.4268 39.9456L39.9005 44.4193L37.9809 46.3389Z" fill="white"/>
<path d="M44.4156 1.93945L39.666 6.68906L61.0393 28.0623L65.7889 23.3127L44.4156 1.93945Z" fill="#2DA660"/>
<path d="M65.7889 23.3127L61.0393 18.5631L39.666 39.9363L44.4156 44.686L65.7889 23.3127Z" fill="#2DA660"/>
<path d="M232.017 36.1722C227.608 36.1722 223.962 34.7164 221.078 31.8049C218.195 28.8933 216.753 25.3302 216.753 21.1154C216.753 16.9006 218.195 13.3374 221.078 10.4259C223.962 7.51436 227.608 6.05859 232.017 6.05859C234.707 6.05859 237.175 6.71022 239.421 8.01348C241.667 9.28901 243.4 11.0221 244.62 13.2126L242.041 14.71C241.126 12.9354 239.768 11.5212 237.965 10.4675C236.163 9.41379 234.18 8.88694 232.017 8.88694C228.385 8.88694 225.418 10.0654 223.116 12.4224C220.815 14.7793 219.664 17.677 219.664 21.1154C219.664 24.5538 220.815 27.4514 223.116 29.8084C225.418 32.1653 228.385 33.3438 232.017 33.3438C234.18 33.3438 236.163 32.817 237.965 31.7633C239.768 30.7096 241.126 29.2954 242.041 27.5207L244.62 28.9765C243.428 31.1671 241.695 32.914 239.421 34.2173C237.175 35.5205 234.707 36.1722 232.017 36.1722Z" fill="white"/>
<path d="M257.893 14.3773C260.417 14.3773 262.399 15.1537 263.841 16.7065C265.311 18.2316 266.046 20.2974 266.046 22.9039V35.673H263.3V22.9039C263.3 21.0461 262.801 19.6041 261.803 18.5782C260.833 17.5522 259.446 17.0392 257.644 17.0392C255.647 17.0392 254.025 17.677 252.777 18.9525C251.53 20.2003 250.906 22.1413 250.906 24.7756V35.673H248.16V6.55771H250.906V18.1207C252.458 15.6251 254.788 14.3773 257.893 14.3773Z" fill="white"/>
<path d="M288.407 14.8764H291.152V35.673H288.407V31.5969C286.494 34.6471 283.693 36.1722 280.005 36.1722C277.038 36.1722 274.501 35.1185 272.393 33.0111C270.314 30.9037 269.274 28.3249 269.274 25.2747C269.274 22.2245 270.314 19.6457 272.393 17.5383C274.501 15.431 277.038 14.3773 280.005 14.3773C283.693 14.3773 286.494 15.9023 288.407 18.9525V14.8764ZM274.39 31.1394C275.97 32.7199 277.911 33.5102 280.213 33.5102C282.514 33.5102 284.455 32.7199 286.036 31.1394C287.617 29.5311 288.407 27.5762 288.407 25.2747C288.407 22.9732 287.617 21.0322 286.036 19.4516C284.455 17.8434 282.514 17.0392 280.213 17.0392C277.911 17.0392 275.97 17.8434 274.39 19.4516C272.809 21.0322 272.019 22.9732 272.019 25.2747C272.019 27.5762 272.809 29.5311 274.39 31.1394Z" fill="white"/>
<path d="M313.56 33.0527C311.453 35.1323 308.874 36.1722 305.824 36.1722C302.774 36.1722 300.181 35.1323 298.046 33.0527C295.938 30.9453 294.885 28.3526 294.885 25.2747C294.885 22.1968 295.938 19.618 298.046 17.5383C300.181 15.431 302.774 14.3773 305.824 14.3773C308.874 14.3773 311.453 15.431 313.56 17.5383C315.695 19.618 316.763 22.1968 316.763 25.2747C316.763 28.3526 315.695 30.9453 313.56 33.0527ZM300.001 31.1394C301.581 32.7199 303.522 33.5102 305.824 33.5102C308.125 33.5102 310.066 32.7199 311.647 31.1394C313.227 29.5311 314.018 27.5762 314.018 25.2747C314.018 22.9732 313.227 21.0322 311.647 19.4516C310.066 17.8434 308.125 17.0392 305.824 17.0392C303.522 17.0392 301.581 17.8434 300.001 19.4516C298.42 21.0322 297.63 22.9732 297.63 25.2747C297.63 27.5762 298.42 29.5311 300.001 31.1394Z" fill="white"/>
<path d="M322.281 20.3251C322.281 21.2679 322.697 22.0166 323.529 22.5711C324.361 23.1257 325.373 23.5555 326.565 23.8605C327.758 24.1656 328.95 24.5122 330.143 24.9004C331.335 25.2608 332.347 25.8847 333.179 26.7721C334.011 27.6317 334.427 28.7685 334.427 30.1827C334.427 31.9574 333.72 33.3993 332.305 34.5084C330.919 35.6176 329.117 36.1722 326.898 36.1722C324.902 36.1722 323.196 35.7285 321.782 34.8412C320.396 33.9538 319.425 32.8031 318.871 31.3889L321.2 30.0163C321.588 31.0978 322.281 31.9574 323.28 32.5951C324.306 33.2052 325.512 33.5102 326.898 33.5102C328.257 33.5102 329.394 33.2468 330.309 32.7199C331.224 32.1653 331.681 31.3196 331.681 30.1827C331.681 29.2399 331.266 28.4913 330.434 27.9367C329.602 27.3821 328.59 26.9523 327.397 26.6473C326.205 26.3423 325.013 26.0095 323.82 25.649C322.628 25.2608 321.616 24.6369 320.784 23.7773C319.952 22.89 319.536 21.7393 319.536 20.3251C319.536 18.6336 320.202 17.2195 321.533 16.0826C322.891 14.9457 324.597 14.3773 326.649 14.3773C328.34 14.3773 329.824 14.7655 331.099 15.5419C332.375 16.2905 333.317 17.3165 333.927 18.6198L331.64 19.9508C330.836 18.0097 329.172 17.0392 326.649 17.0392C325.456 17.0392 324.43 17.3304 323.571 17.9127C322.711 18.4673 322.281 19.2714 322.281 20.3251Z" fill="white"/>
<path d="M102.44 35.6744H95.8267L85.4284 22.0318V35.6744H79.6885V6.55909H85.4284V19.4114L95.4108 6.55909H102.024L91.2514 20.7008L102.44 35.6744Z" fill="white"/>
<path d="M117.11 14.8778H122.476V35.6744H117.11V33.3452C115.807 35.2862 113.741 36.2567 110.913 36.2567C108.639 36.2567 106.753 35.4942 105.256 33.9691C103.786 32.444 103.052 30.3366 103.052 27.6469V14.8778H108.417V26.9814C108.417 28.3679 108.791 29.4354 109.54 30.1841C110.289 30.905 111.287 31.2655 112.535 31.2655C113.921 31.2655 115.03 30.8357 115.862 29.9761C116.694 29.1165 117.11 27.8271 117.11 26.108V14.8778Z" fill="white"/>
<path d="M138.662 14.2955C141.462 14.2955 143.847 15.363 145.816 17.4981C147.812 19.6055 148.81 22.1982 148.81 25.2761C148.81 28.354 147.812 30.9605 145.816 33.0956C143.847 35.203 141.462 36.2567 138.662 36.2567C135.75 36.2567 133.504 35.2446 131.924 33.2204V35.6744H126.558V6.55909H131.924V17.3318C133.504 15.3076 135.75 14.2955 138.662 14.2955ZM133.546 29.5186C134.627 30.6 136 31.1407 137.663 31.1407C139.327 31.1407 140.7 30.6 141.781 29.5186C142.89 28.4094 143.445 26.9953 143.445 25.2761C143.445 23.5569 142.89 22.1566 141.781 21.0752C140.7 19.966 139.327 19.4114 137.663 19.4114C136 19.4114 134.627 19.966 133.546 21.0752C132.464 22.1566 131.924 23.5569 131.924 25.2761C131.924 26.9953 132.464 28.4094 133.546 29.5186Z" fill="white"/>
<path d="M156.296 27.4805C157.017 30.087 158.972 31.3903 162.161 31.3903C164.213 31.3903 165.766 30.6971 166.819 29.3106L171.145 31.8062C169.093 34.7732 166.071 36.2567 162.078 36.2567C158.639 36.2567 155.88 35.2169 153.801 33.1372C151.721 31.0576 150.681 28.4372 150.681 25.2761C150.681 22.1427 151.707 19.5362 153.759 17.4565C155.811 15.3491 158.445 14.2955 161.662 14.2955C164.712 14.2955 167.221 15.3491 169.19 17.4565C171.187 19.5639 172.185 22.1705 172.185 25.2761C172.185 25.9693 172.116 26.7041 171.977 27.4805H156.296ZM156.213 23.3212H166.819C166.514 21.907 165.877 20.8533 164.906 20.1601C163.963 19.4669 162.882 19.1203 161.662 19.1203C160.22 19.1203 159.028 19.4946 158.085 20.2433C157.142 20.9642 156.518 21.9902 156.213 23.3212Z" fill="white"/>
<path d="M180.464 18.4548C180.963 17.1238 181.781 16.1256 182.918 15.4601C184.083 14.7946 185.372 14.4618 186.786 14.4618V20.4513C185.15 20.2572 183.681 20.5899 182.378 21.4495C181.102 22.3091 180.464 23.7371 180.464 25.7336V35.6744H175.099V14.8778H180.464V18.4548Z" fill="white"/>
<path d="M204.126 14.8778H209.492V35.6744H204.126V33.2204C202.518 35.2446 200.258 36.2567 197.347 36.2567C194.574 36.2567 192.189 35.203 190.192 33.0956C188.224 30.9605 187.239 28.354 187.239 25.2761C187.239 22.1982 188.224 19.6055 190.192 17.4981C192.189 15.363 194.574 14.2955 197.347 14.2955C200.258 14.2955 202.518 15.3076 204.126 17.3318V14.8778ZM194.227 29.5186C195.308 30.6 196.681 31.1407 198.345 31.1407C200.009 31.1407 201.381 30.6 202.463 29.5186C203.572 28.4094 204.126 26.9953 204.126 25.2761C204.126 23.5569 203.572 22.1566 202.463 21.0752C201.381 19.966 200.009 19.4114 198.345 19.4114C196.681 19.4114 195.308 19.966 194.227 21.0752C193.146 22.1566 192.605 23.5569 192.605 25.2761C192.605 26.9953 193.146 28.4094 194.227 29.5186Z" fill="white"/>
</svg>
