<svg width="196" height="46" viewBox="0 0 196 46" fill="none" xmlns="http://www.w3.org/2000/svg">
<path d="M8.0965 15.8304V36.5779C8.0965 37.0778 8.35163 37.5777 8.86191 37.8277L18.7628 43.4827C19.273 43.7326 20.3864 43.7326 20.8967 43.4827L30.8038 37.8277C31.314 37.5777 31.5692 37.0778 31.5692 36.5779V15.8304L19.8328 22.5796L8.0965 15.8304Z" fill="#2DA660"/>
<path d="M34.3609 13.6555C34.3609 13.6555 21.447 5.31419 20.9089 5.04511C20.3708 4.77602 19.2948 4.77602 18.7566 5.04511C18.2185 5.31419 5.30463 13.6555 5.30463 13.6555C5.30463 13.6555 4.76655 13.9438 4.76655 14.1936V34.4318C4.76655 34.9315 4.58359 34.9507 4.20034 34.9315C3.279 34.8853 1.73853 33.4324 1.49236 33.1825C1.24618 32.9326 1 32.7597 1 32.4329V11.9449C1 11.6951 1.05099 11.426 1.49236 11.1954C1.93372 10.9647 18.2185 0.470838 18.7566 0.201794C19.2948 -0.0672501 20.3708 -0.0672793 20.9089 0.201794C21.447 0.470868 37.7317 10.9647 38.1731 11.1954C38.6145 11.426 38.6655 11.6951 38.6655 11.9449V32.4329C38.6655 32.7597 38.4193 32.9326 38.1731 33.1825C37.9269 33.4324 36.3865 34.8853 35.4652 34.9315C35.0819 34.9507 34.899 34.9315 34.899 34.4318V14.1936C34.899 13.9438 34.3609 13.6555 34.3609 13.6555Z" fill="#2DA660"/>
<path d="M28.1538 13.9507L19.8328 9.20068L11.5118 13.9507L19.8328 18.9507L28.1538 13.9507Z" fill="black"/>
<path d="M141.29 31.5652V33.2947H131.464V12.9803H133.035V31.5652H141.29Z" fill="black"/>
<path d="M145.657 33.2947H144.019V18.0141H145.657V33.2947Z" fill="black"/>
<path d="M149.888 18.1396H154.645V19.7518H149.888V27.8131C149.888 28.6729 149.942 29.3765 150.049 29.9237C150.173 30.4513 150.342 30.8617 150.557 31.1548C150.773 31.448 151.035 31.6434 151.343 31.7411C151.651 31.8388 151.989 31.8877 152.359 31.8877C152.99 31.8877 153.498 31.7997 153.883 31.6239C154.268 31.4284 154.568 31.2525 154.784 31.0962L155.154 32.6791C154.938 32.855 154.561 33.0602 154.022 33.2947C153.483 33.5097 152.898 33.6172 152.267 33.6172C151.528 33.6172 150.904 33.4999 150.396 33.2654C149.903 33.0114 149.503 32.6401 149.195 32.1515C148.902 31.6434 148.694 31.018 148.571 30.2754C148.448 29.5328 148.386 28.6534 148.386 27.6372V13.6839L149.888 13.3321V18.1396Z" fill="black"/>
<path d="M157.12 18.6672C157.567 18.5109 158.144 18.335 158.853 18.1396C159.576 17.9441 160.508 17.8464 161.647 17.8464C163.156 17.8464 164.522 18.4034 165.2 19.5173C165.277 19.4391 165.423 19.3121 165.639 19.1362C165.87 18.9408 166.154 18.7454 166.493 18.5499C166.832 18.3545 167.225 18.1884 167.671 18.0516C168.133 17.9148 168.641 17.8464 169.195 17.8464C170.104 17.8464 170.835 18.0223 171.39 18.3741C171.959 18.7063 172.398 19.1851 172.706 19.8104C173.014 20.4163 173.222 21.1491 173.33 22.009C173.437 22.8688 173.491 23.8069 173.491 24.8231V33.2947H171.99V25.4387C171.99 24.442 171.952 23.5821 171.875 22.8591C171.813 22.1164 171.674 21.5106 171.459 21.0416C171.259 20.5531 170.966 20.1915 170.581 19.957C170.196 19.703 169.696 19.5759 169.08 19.5759C168.618 19.5759 168.195 19.6346 167.81 19.7518C167.44 19.8495 167.117 19.9765 166.84 20.1329C166.562 20.2892 166.332 20.4456 166.147 20.6019C165.977 20.7582 165.854 20.8755 165.777 20.9537C165.916 21.4618 166.016 22.0383 166.077 22.6832C166.154 23.3085 166.193 23.973 166.193 24.6765V33.2947H164.419V25.4387C164.419 24.442 164.38 23.5821 164.303 22.8591C164.242 22.1164 164.103 21.5106 163.888 21.0416C163.672 20.5531 163.364 20.1915 162.964 19.957C162.579 19.703 162.063 19.5759 161.416 19.5759C160.693 19.5759 160.077 19.6248 159.569 19.7225C159.076 19.8202 158.76 19.9081 158.622 19.9863V33.2947H157.12V18.6672Z" fill="black"/>
<path d="M185.506 32.7671C185.06 32.9234 184.487 33.0993 183.732 33.2947C182.978 33.4902 182.054 33.5879 180.961 33.5879C180.068 33.5879 179.321 33.4218 178.72 33.0895C178.12 32.7573 177.635 32.2883 177.265 31.6825C176.896 31.0767 176.626 30.3438 176.457 29.484C176.303 28.6241 176.226 27.6763 176.226 26.6405V18.1396H177.727V26.0249C177.727 27.0998 177.789 28.0085 177.912 28.7511C178.035 29.4937 178.235 30.0995 178.513 30.5686C178.79 31.018 179.144 31.3503 179.575 31.5652C180.022 31.7607 180.56 31.8584 181.192 31.8584C181.9 31.8584 182.516 31.8095 183.039 31.7118C183.563 31.6141 183.718 31.5261 183.857 31.448L183.868 18.1396H185.506V32.7671Z" fill="black"/>
<path d="M191.473 31.9463C192.335 31.9463 193.044 31.7704 193.598 31.4187C194.168 31.0474 194.452 30.4318 194.452 29.5719C194.452 29.1615 194.399 28.8097 194.291 28.5166C194.198 28.2235 194.037 27.9596 193.806 27.7251C193.575 27.4906 193.267 27.2659 192.882 27.0509C192.512 26.836 192.05 26.5819 191.496 26.2888C191.05 26.0543 190.626 25.8197 190.226 25.5852C189.826 25.3312 189.471 25.0478 189.163 24.7351C188.856 24.4029 188.609 24.0121 188.424 23.5626C188.24 23.1131 188.147 22.5659 188.147 21.921C188.147 20.6898 188.509 19.6932 189.233 18.931C189.972 18.1689 190.98 17.7878 192.258 17.7878C193.074 17.7878 193.744 17.8757 194.268 18.0516C194.807 18.2275 195.184 18.3838 195.399 18.5206L195.053 20.2208C194.868 20.1036 194.553 19.9472 194.106 19.7518C193.675 19.5564 193.036 19.4587 192.189 19.4587C191.85 19.4587 191.527 19.5075 191.219 19.6052C190.926 19.6834 190.665 19.8202 190.434 20.0156C190.203 20.1915 190.018 20.426 189.879 20.7192C189.741 20.9928 189.672 21.3348 189.672 21.7451C189.672 22.1555 189.733 22.5073 189.856 22.8004C189.979 23.0936 190.157 23.3574 190.388 23.5919C190.634 23.8069 190.926 24.0121 191.265 24.2075C191.619 24.4029 192.02 24.6179 192.466 24.8524C192.928 25.0869 193.367 25.3312 193.783 25.5852C194.214 25.8197 194.591 26.1129 194.914 26.4646C195.238 26.7969 195.499 27.2073 195.7 27.6958C195.9 28.1648 196 28.7609 196 29.484C196 30.8519 195.592 31.8877 194.776 32.5912C193.975 33.2947 192.874 33.6465 191.473 33.6465C190.426 33.6465 189.625 33.5292 189.071 33.2947C188.517 33.0798 188.147 32.9137 187.962 32.7964L188.355 31.0669C188.401 31.106 188.501 31.1744 188.655 31.2721C188.809 31.3503 189.017 31.448 189.279 31.5652C189.541 31.6629 189.849 31.7509 190.203 31.8291C190.572 31.9072 190.996 31.9463 191.473 31.9463Z" fill="black"/>
<path d="M144.033 15.2874C144.254 15.4806 144.515 15.5773 144.814 15.5773C145.113 15.5773 145.367 15.4806 145.576 15.2874C145.797 15.0812 145.908 14.8107 145.908 14.4757C145.908 14.1407 145.797 13.8766 145.576 13.6833C145.367 13.4772 145.113 13.3741 144.814 13.3741C144.515 13.3741 144.254 13.4772 144.033 13.6833C143.824 13.8766 143.724 14.141 143.724 14.476C143.724 14.811 143.824 15.0812 144.033 15.2874Z" fill="black"/>
<mask id="path-5-outside-1" maskUnits="userSpaceOnUse" x="51" y="9.54736" width="73" height="25" fill="black">
<rect fill="white" x="51" y="9.54736" width="73" height="25"/>
<path d="M63.8482 12.9804C63.3709 13.6448 62.832 14.3875 62.2315 15.2082C61.631 16.0095 60.9997 16.84 60.3376 17.6999C59.6909 18.5402 59.0443 19.3708 58.3976 20.1916C57.7509 21.0124 57.1427 21.7745 56.573 22.478C57.2351 23.0643 57.9357 23.7874 58.6747 24.6472C59.4138 25.5071 60.1375 26.4256 60.8457 27.4027C61.554 28.3799 62.2161 29.3765 62.832 30.3927C63.4633 31.4089 63.9868 32.3763 64.4025 33.2948H61.7696C61.3077 32.3763 60.7765 31.4578 60.176 30.5393C59.5755 29.6013 58.9365 28.7121 58.259 27.8718C57.5969 27.0119 56.9194 26.2204 56.2266 25.4973C55.5491 24.7743 54.887 24.1587 54.2403 23.6506V33.2948H52V12.9804H54.2403V21.9504C54.7792 21.3055 55.372 20.5824 56.0187 19.7812C56.6654 18.9604 57.3044 18.1396 57.9357 17.3188C58.5669 16.498 59.1597 15.7163 59.714 14.9737C60.2837 14.2116 60.7611 13.5471 61.146 12.9804H63.8482Z"/>
<path d="M75.6551 32.8551C75.1624 33.0114 74.508 33.1775 73.692 33.3534C72.8913 33.5293 71.9598 33.6172 70.8973 33.6172C69.9735 33.6172 69.1959 33.4511 68.5647 33.1189C67.9334 32.7671 67.4253 32.2786 67.0403 31.6532C66.6554 31.0279 66.3782 30.295 66.2089 29.4547C66.0395 28.5948 65.9548 27.647 65.9548 26.6113V18.0517H68.1027V26.025C68.1027 27.8815 68.3337 29.2104 68.7956 30.0117C69.2575 30.8129 70.0351 31.2135 71.1283 31.2135C71.3593 31.2135 71.5979 31.2037 71.8443 31.1842C72.0906 31.1647 72.3216 31.1451 72.5372 31.1256C72.7527 31.0865 72.9452 31.0572 73.1146 31.0376C73.2993 30.9985 73.4302 30.9595 73.5072 30.9204V18.0517H75.6551V32.8551Z"/>
<path d="M80.9576 18.7259C81.2193 18.5109 81.6119 18.2862 82.1354 18.0517C82.6743 17.8172 83.2902 17.6999 83.9831 17.6999C84.8454 17.6999 85.6075 17.8953 86.2696 18.2862C86.9471 18.677 87.5168 19.2242 87.9787 19.9277C88.4406 20.6313 88.7871 21.4716 89.018 22.4487C89.2644 23.4258 89.3876 24.5007 89.3876 25.6732C89.3876 26.9044 89.2413 28.0183 88.9487 29.015C88.6716 29.9921 88.2713 30.8227 87.7478 31.5067C87.2242 32.1906 86.593 32.7183 85.8539 33.0896C85.1148 33.4609 84.2834 33.6466 83.3595 33.6466C82.3587 33.6466 81.4734 33.5586 80.7035 33.3827C79.9336 33.2068 79.3023 33.031 78.8096 32.8551V11.0164L80.9576 10.5474V18.7259ZM80.9576 30.9204C81.1731 30.9986 81.4734 31.0767 81.8583 31.1549C82.2586 31.2135 82.7513 31.2428 83.3364 31.2428C84.4912 31.2428 85.4151 30.764 86.1079 29.8065C86.8008 28.8293 87.1473 27.4516 87.1473 25.6732C87.1473 24.8915 87.0857 24.1587 86.9625 23.4747C86.8393 22.7907 86.6391 22.2044 86.362 21.7159C86.0848 21.2078 85.723 20.8169 85.2765 20.5433C84.8454 20.2502 84.3219 20.1036 83.706 20.1036C83.1209 20.1036 82.582 20.2307 82.0892 20.4847C81.5965 20.7388 81.2193 21.0026 80.9576 21.2762V30.9204Z"/>
<path d="M92.1219 25.7025C92.1219 24.3541 92.2759 23.1816 92.5838 22.1849C92.8918 21.1687 93.2998 20.3284 93.8079 19.6639C94.316 18.9995 94.9011 18.5011 95.5632 18.1689C96.2253 17.8367 96.9028 17.6706 97.5956 17.6706C99.2124 17.6706 100.452 18.3155 101.314 19.6053C102.176 20.8756 102.607 22.82 102.607 25.4387C102.607 25.556 102.607 25.7123 102.607 25.9077C102.607 26.0836 102.6 26.2497 102.584 26.4061H94.3622C94.4546 27.989 94.8164 29.1909 95.4477 30.0117C96.079 30.8324 97.0644 31.2428 98.404 31.2428C99.1585 31.2428 99.7898 31.1647 100.298 31.0083C100.821 30.8324 101.214 30.6663 101.476 30.51L101.776 32.7965C101.514 32.9723 101.052 33.158 100.39 33.3534C99.7436 33.5488 99.0045 33.6466 98.173 33.6466C97.126 33.6466 96.2176 33.4511 95.4477 33.0603C94.6933 32.6499 94.0697 32.0929 93.5769 31.3894C93.0842 30.6859 92.7147 29.8553 92.4683 28.8977C92.2374 27.9206 92.1219 26.8555 92.1219 25.7025ZM100.367 24.2075C100.383 22.9764 100.136 21.9699 99.6281 21.1882C99.1354 20.387 98.4502 19.9864 97.5725 19.9864C97.0798 19.9864 96.641 20.1134 96.2561 20.3674C95.8865 20.602 95.5709 20.9146 95.3091 21.3055C95.0474 21.6963 94.8395 22.1458 94.6856 22.6539C94.547 23.162 94.4546 23.6799 94.4084 24.2075H100.367Z"/>
<path d="M109.93 17.7292C110.115 17.7292 110.323 17.7488 110.554 17.7878C110.8 17.8074 111.039 17.8465 111.27 17.9051C111.501 17.9442 111.709 17.993 111.893 18.0517C112.094 18.0908 112.24 18.1298 112.332 18.1689L111.963 20.5433C111.793 20.4652 111.509 20.3772 111.108 20.2795C110.723 20.1623 110.223 20.1036 109.607 20.1036C109.207 20.1036 108.806 20.1623 108.406 20.2795C108.021 20.3772 107.767 20.4456 107.644 20.4847V33.2948H105.496V18.6966C106.004 18.4621 106.635 18.2471 107.39 18.0517C108.144 17.8367 108.991 17.7292 109.93 17.7292Z"/>
<path d="M118.851 31.3308C119.36 31.3308 119.806 31.321 120.191 31.3015C120.591 31.2624 120.922 31.2037 121.184 31.1256V26.582C121.03 26.4842 120.776 26.4061 120.422 26.3474C120.083 26.2693 119.668 26.2302 119.175 26.2302C118.851 26.2302 118.505 26.2595 118.135 26.3181C117.781 26.3768 117.45 26.5038 117.142 26.6992C116.85 26.8751 116.603 27.1291 116.403 27.4614C116.203 27.774 116.103 28.1942 116.103 28.7218C116.103 29.699 116.349 30.383 116.842 30.7738C117.335 31.1451 118.005 31.3308 118.851 31.3308ZM118.667 17.6706C119.529 17.6706 120.253 17.8172 120.838 18.1103C121.438 18.3839 121.916 18.7845 122.27 19.3122C122.639 19.8203 122.901 20.4358 123.055 21.1589C123.209 21.8624 123.286 22.6441 123.286 23.504V33.031C123.101 33.07 122.839 33.1287 122.501 33.2068C122.177 33.2655 121.808 33.3241 121.392 33.3827C120.976 33.4414 120.522 33.4902 120.029 33.5293C119.552 33.5879 119.075 33.6172 118.597 33.6172C117.92 33.6172 117.296 33.5293 116.727 33.3534C116.157 33.1775 115.664 32.9039 115.248 32.5326C114.833 32.1418 114.509 31.6337 114.278 31.0083C114.047 30.383 113.932 29.6306 113.932 28.7512C113.932 27.9108 114.063 27.1878 114.325 26.582C114.602 25.9761 114.971 25.4876 115.433 25.1163C115.895 24.745 116.434 24.4714 117.05 24.2955C117.666 24.1196 118.313 24.0317 118.99 24.0317C119.206 24.0317 119.429 24.0512 119.66 24.0903C119.891 24.1098 120.106 24.1489 120.306 24.2075C120.522 24.2466 120.707 24.2857 120.861 24.3248C121.015 24.3639 121.123 24.3932 121.184 24.4127V23.6506C121.184 23.2011 121.146 22.7614 121.069 22.3315C120.992 21.882 120.853 21.4911 120.653 21.1589C120.453 20.8072 120.176 20.5336 119.821 20.3381C119.483 20.1232 119.036 20.0157 118.482 20.0157C117.774 20.0157 117.15 20.0841 116.611 20.2209C116.088 20.3381 115.695 20.4652 115.433 20.602L115.179 18.3448C115.456 18.1885 115.918 18.0419 116.565 17.9051C117.212 17.7488 117.912 17.6706 118.667 17.6706Z"/>
</mask>
<path d="M63.8482 12.9804C63.3709 13.6448 62.832 14.3875 62.2315 15.2082C61.631 16.0095 60.9997 16.84 60.3376 17.6999C59.6909 18.5402 59.0443 19.3708 58.3976 20.1916C57.7509 21.0124 57.1427 21.7745 56.573 22.478C57.2351 23.0643 57.9357 23.7874 58.6747 24.6472C59.4138 25.5071 60.1375 26.4256 60.8457 27.4027C61.554 28.3799 62.2161 29.3765 62.832 30.3927C63.4633 31.4089 63.9868 32.3763 64.4025 33.2948H61.7696C61.3077 32.3763 60.7765 31.4578 60.176 30.5393C59.5755 29.6013 58.9365 28.7121 58.259 27.8718C57.5969 27.0119 56.9194 26.2204 56.2266 25.4973C55.5491 24.7743 54.887 24.1587 54.2403 23.6506V33.2948H52V12.9804H54.2403V21.9504C54.7792 21.3055 55.372 20.5824 56.0187 19.7812C56.6654 18.9604 57.3044 18.1396 57.9357 17.3188C58.5669 16.498 59.1597 15.7163 59.714 14.9737C60.2837 14.2116 60.7611 13.5471 61.146 12.9804H63.8482Z" fill="black"/>
<path d="M75.6551 32.8551C75.1624 33.0114 74.508 33.1775 73.692 33.3534C72.8913 33.5293 71.9598 33.6172 70.8973 33.6172C69.9735 33.6172 69.1959 33.4511 68.5647 33.1189C67.9334 32.7671 67.4253 32.2786 67.0403 31.6532C66.6554 31.0279 66.3782 30.295 66.2089 29.4547C66.0395 28.5948 65.9548 27.647 65.9548 26.6113V18.0517H68.1027V26.025C68.1027 27.8815 68.3337 29.2104 68.7956 30.0117C69.2575 30.8129 70.0351 31.2135 71.1283 31.2135C71.3593 31.2135 71.5979 31.2037 71.8443 31.1842C72.0906 31.1647 72.3216 31.1451 72.5372 31.1256C72.7527 31.0865 72.9452 31.0572 73.1146 31.0376C73.2993 30.9985 73.4302 30.9595 73.5072 30.9204V18.0517H75.6551V32.8551Z" fill="black"/>
<path d="M80.9576 18.7259C81.2193 18.5109 81.6119 18.2862 82.1354 18.0517C82.6743 17.8172 83.2902 17.6999 83.9831 17.6999C84.8454 17.6999 85.6075 17.8953 86.2696 18.2862C86.9471 18.677 87.5168 19.2242 87.9787 19.9277C88.4406 20.6313 88.7871 21.4716 89.018 22.4487C89.2644 23.4258 89.3876 24.5007 89.3876 25.6732C89.3876 26.9044 89.2413 28.0183 88.9487 29.015C88.6716 29.9921 88.2713 30.8227 87.7478 31.5067C87.2242 32.1906 86.593 32.7183 85.8539 33.0896C85.1148 33.4609 84.2834 33.6466 83.3595 33.6466C82.3587 33.6466 81.4734 33.5586 80.7035 33.3827C79.9336 33.2068 79.3023 33.031 78.8096 32.8551V11.0164L80.9576 10.5474V18.7259ZM80.9576 30.9204C81.1731 30.9986 81.4734 31.0767 81.8583 31.1549C82.2586 31.2135 82.7513 31.2428 83.3364 31.2428C84.4912 31.2428 85.4151 30.764 86.1079 29.8065C86.8008 28.8293 87.1473 27.4516 87.1473 25.6732C87.1473 24.8915 87.0857 24.1587 86.9625 23.4747C86.8393 22.7907 86.6391 22.2044 86.362 21.7159C86.0848 21.2078 85.723 20.8169 85.2765 20.5433C84.8454 20.2502 84.3219 20.1036 83.706 20.1036C83.1209 20.1036 82.582 20.2307 82.0892 20.4847C81.5965 20.7388 81.2193 21.0026 80.9576 21.2762V30.9204Z" fill="black"/>
<path d="M92.1219 25.7025C92.1219 24.3541 92.2759 23.1816 92.5838 22.1849C92.8918 21.1687 93.2998 20.3284 93.8079 19.6639C94.316 18.9995 94.9011 18.5011 95.5632 18.1689C96.2253 17.8367 96.9028 17.6706 97.5956 17.6706C99.2124 17.6706 100.452 18.3155 101.314 19.6053C102.176 20.8756 102.607 22.82 102.607 25.4387C102.607 25.556 102.607 25.7123 102.607 25.9077C102.607 26.0836 102.6 26.2497 102.584 26.4061H94.3622C94.4546 27.989 94.8164 29.1909 95.4477 30.0117C96.079 30.8324 97.0644 31.2428 98.404 31.2428C99.1585 31.2428 99.7898 31.1647 100.298 31.0083C100.821 30.8324 101.214 30.6663 101.476 30.51L101.776 32.7965C101.514 32.9723 101.052 33.158 100.39 33.3534C99.7436 33.5488 99.0045 33.6466 98.173 33.6466C97.126 33.6466 96.2176 33.4511 95.4477 33.0603C94.6933 32.6499 94.0697 32.0929 93.5769 31.3894C93.0842 30.6859 92.7147 29.8553 92.4683 28.8977C92.2374 27.9206 92.1219 26.8555 92.1219 25.7025ZM100.367 24.2075C100.383 22.9764 100.136 21.9699 99.6281 21.1882C99.1354 20.387 98.4502 19.9864 97.5725 19.9864C97.0798 19.9864 96.641 20.1134 96.2561 20.3674C95.8865 20.602 95.5709 20.9146 95.3091 21.3055C95.0474 21.6963 94.8395 22.1458 94.6856 22.6539C94.547 23.162 94.4546 23.6799 94.4084 24.2075H100.367Z" fill="black"/>
<path d="M109.93 17.7292C110.115 17.7292 110.323 17.7488 110.554 17.7878C110.8 17.8074 111.039 17.8465 111.27 17.9051C111.501 17.9442 111.709 17.993 111.893 18.0517C112.094 18.0908 112.24 18.1298 112.332 18.1689L111.963 20.5433C111.793 20.4652 111.509 20.3772 111.108 20.2795C110.723 20.1623 110.223 20.1036 109.607 20.1036C109.207 20.1036 108.806 20.1623 108.406 20.2795C108.021 20.3772 107.767 20.4456 107.644 20.4847V33.2948H105.496V18.6966C106.004 18.4621 106.635 18.2471 107.39 18.0517C108.144 17.8367 108.991 17.7292 109.93 17.7292Z" fill="black"/>
<path d="M118.851 31.3308C119.36 31.3308 119.806 31.321 120.191 31.3015C120.591 31.2624 120.922 31.2037 121.184 31.1256V26.582C121.03 26.4842 120.776 26.4061 120.422 26.3474C120.083 26.2693 119.668 26.2302 119.175 26.2302C118.851 26.2302 118.505 26.2595 118.135 26.3181C117.781 26.3768 117.45 26.5038 117.142 26.6992C116.85 26.8751 116.603 27.1291 116.403 27.4614C116.203 27.774 116.103 28.1942 116.103 28.7218C116.103 29.699 116.349 30.383 116.842 30.7738C117.335 31.1451 118.005 31.3308 118.851 31.3308ZM118.667 17.6706C119.529 17.6706 120.253 17.8172 120.838 18.1103C121.438 18.3839 121.916 18.7845 122.27 19.3122C122.639 19.8203 122.901 20.4358 123.055 21.1589C123.209 21.8624 123.286 22.6441 123.286 23.504V33.031C123.101 33.07 122.839 33.1287 122.501 33.2068C122.177 33.2655 121.808 33.3241 121.392 33.3827C120.976 33.4414 120.522 33.4902 120.029 33.5293C119.552 33.5879 119.075 33.6172 118.597 33.6172C117.92 33.6172 117.296 33.5293 116.727 33.3534C116.157 33.1775 115.664 32.9039 115.248 32.5326C114.833 32.1418 114.509 31.6337 114.278 31.0083C114.047 30.383 113.932 29.6306 113.932 28.7512C113.932 27.9108 114.063 27.1878 114.325 26.582C114.602 25.9761 114.971 25.4876 115.433 25.1163C115.895 24.745 116.434 24.4714 117.05 24.2955C117.666 24.1196 118.313 24.0317 118.99 24.0317C119.206 24.0317 119.429 24.0512 119.66 24.0903C119.891 24.1098 120.106 24.1489 120.306 24.2075C120.522 24.2466 120.707 24.2857 120.861 24.3248C121.015 24.3639 121.123 24.3932 121.184 24.4127V23.6506C121.184 23.2011 121.146 22.7614 121.069 22.3315C120.992 21.882 120.853 21.4911 120.653 21.1589C120.453 20.8072 120.176 20.5336 119.821 20.3381C119.483 20.1232 119.036 20.0157 118.482 20.0157C117.774 20.0157 117.15 20.0841 116.611 20.2209C116.088 20.3381 115.695 20.4652 115.433 20.602L115.179 18.3448C115.456 18.1885 115.918 18.0419 116.565 17.9051C117.212 17.7488 117.912 17.6706 118.667 17.6706Z" fill="black"/>
<path d="M63.8482 12.9804C63.3709 13.6448 62.832 14.3875 62.2315 15.2082C61.631 16.0095 60.9997 16.84 60.3376 17.6999C59.6909 18.5402 59.0443 19.3708 58.3976 20.1916C57.7509 21.0124 57.1427 21.7745 56.573 22.478C57.2351 23.0643 57.9357 23.7874 58.6747 24.6472C59.4138 25.5071 60.1375 26.4256 60.8457 27.4027C61.554 28.3799 62.2161 29.3765 62.832 30.3927C63.4633 31.4089 63.9868 32.3763 64.4025 33.2948H61.7696C61.3077 32.3763 60.7765 31.4578 60.176 30.5393C59.5755 29.6013 58.9365 28.7121 58.259 27.8718C57.5969 27.0119 56.9194 26.2204 56.2266 25.4973C55.5491 24.7743 54.887 24.1587 54.2403 23.6506V33.2948H52V12.9804H54.2403V21.9504C54.7792 21.3055 55.372 20.5824 56.0187 19.7812C56.6654 18.9604 57.3044 18.1396 57.9357 17.3188C58.5669 16.498 59.1597 15.7163 59.714 14.9737C60.2837 14.2116 60.7611 13.5471 61.146 12.9804H63.8482Z" stroke="black" stroke-width="0.2" mask="url(#path-5-outside-1)"/>
<path d="M75.6551 32.8551C75.1624 33.0114 74.508 33.1775 73.692 33.3534C72.8913 33.5293 71.9598 33.6172 70.8973 33.6172C69.9735 33.6172 69.1959 33.4511 68.5647 33.1189C67.9334 32.7671 67.4253 32.2786 67.0403 31.6532C66.6554 31.0279 66.3782 30.295 66.2089 29.4547C66.0395 28.5948 65.9548 27.647 65.9548 26.6113V18.0517H68.1027V26.025C68.1027 27.8815 68.3337 29.2104 68.7956 30.0117C69.2575 30.8129 70.0351 31.2135 71.1283 31.2135C71.3593 31.2135 71.5979 31.2037 71.8443 31.1842C72.0906 31.1647 72.3216 31.1451 72.5372 31.1256C72.7527 31.0865 72.9452 31.0572 73.1146 31.0376C73.2993 30.9985 73.4302 30.9595 73.5072 30.9204V18.0517H75.6551V32.8551Z" stroke="black" stroke-width="0.2" mask="url(#path-5-outside-1)"/>
<path d="M80.9576 18.7259C81.2193 18.5109 81.6119 18.2862 82.1354 18.0517C82.6743 17.8172 83.2902 17.6999 83.9831 17.6999C84.8454 17.6999 85.6075 17.8953 86.2696 18.2862C86.9471 18.677 87.5168 19.2242 87.9787 19.9277C88.4406 20.6313 88.7871 21.4716 89.018 22.4487C89.2644 23.4258 89.3876 24.5007 89.3876 25.6732C89.3876 26.9044 89.2413 28.0183 88.9487 29.015C88.6716 29.9921 88.2713 30.8227 87.7478 31.5067C87.2242 32.1906 86.593 32.7183 85.8539 33.0896C85.1148 33.4609 84.2834 33.6466 83.3595 33.6466C82.3587 33.6466 81.4734 33.5586 80.7035 33.3827C79.9336 33.2068 79.3023 33.031 78.8096 32.8551V11.0164L80.9576 10.5474V18.7259ZM80.9576 30.9204C81.1731 30.9986 81.4734 31.0767 81.8583 31.1549C82.2586 31.2135 82.7513 31.2428 83.3364 31.2428C84.4912 31.2428 85.4151 30.764 86.1079 29.8065C86.8008 28.8293 87.1473 27.4516 87.1473 25.6732C87.1473 24.8915 87.0857 24.1587 86.9625 23.4747C86.8393 22.7907 86.6391 22.2044 86.362 21.7159C86.0848 21.2078 85.723 20.8169 85.2765 20.5433C84.8454 20.2502 84.3219 20.1036 83.706 20.1036C83.1209 20.1036 82.582 20.2307 82.0892 20.4847C81.5965 20.7388 81.2193 21.0026 80.9576 21.2762V30.9204Z" stroke="black" stroke-width="0.2" mask="url(#path-5-outside-1)"/>
<path d="M92.1219 25.7025C92.1219 24.3541 92.2759 23.1816 92.5838 22.1849C92.8918 21.1687 93.2998 20.3284 93.8079 19.6639C94.316 18.9995 94.9011 18.5011 95.5632 18.1689C96.2253 17.8367 96.9028 17.6706 97.5956 17.6706C99.2124 17.6706 100.452 18.3155 101.314 19.6053C102.176 20.8756 102.607 22.82 102.607 25.4387C102.607 25.556 102.607 25.7123 102.607 25.9077C102.607 26.0836 102.6 26.2497 102.584 26.4061H94.3622C94.4546 27.989 94.8164 29.1909 95.4477 30.0117C96.079 30.8324 97.0644 31.2428 98.404 31.2428C99.1585 31.2428 99.7898 31.1647 100.298 31.0083C100.821 30.8324 101.214 30.6663 101.476 30.51L101.776 32.7965C101.514 32.9723 101.052 33.158 100.39 33.3534C99.7436 33.5488 99.0045 33.6466 98.173 33.6466C97.126 33.6466 96.2176 33.4511 95.4477 33.0603C94.6933 32.6499 94.0697 32.0929 93.5769 31.3894C93.0842 30.6859 92.7147 29.8553 92.4683 28.8977C92.2374 27.9206 92.1219 26.8555 92.1219 25.7025ZM100.367 24.2075C100.383 22.9764 100.136 21.9699 99.6281 21.1882C99.1354 20.387 98.4502 19.9864 97.5725 19.9864C97.0798 19.9864 96.641 20.1134 96.2561 20.3674C95.8865 20.602 95.5709 20.9146 95.3091 21.3055C95.0474 21.6963 94.8395 22.1458 94.6856 22.6539C94.547 23.162 94.4546 23.6799 94.4084 24.2075H100.367Z" stroke="black" stroke-width="0.2" mask="url(#path-5-outside-1)"/>
<path d="M109.93 17.7292C110.115 17.7292 110.323 17.7488 110.554 17.7878C110.8 17.8074 111.039 17.8465 111.27 17.9051C111.501 17.9442 111.709 17.993 111.893 18.0517C112.094 18.0908 112.24 18.1298 112.332 18.1689L111.963 20.5433C111.793 20.4652 111.509 20.3772 111.108 20.2795C110.723 20.1623 110.223 20.1036 109.607 20.1036C109.207 20.1036 108.806 20.1623 108.406 20.2795C108.021 20.3772 107.767 20.4456 107.644 20.4847V33.2948H105.496V18.6966C106.004 18.4621 106.635 18.2471 107.39 18.0517C108.144 17.8367 108.991 17.7292 109.93 17.7292Z" stroke="black" stroke-width="0.2" mask="url(#path-5-outside-1)"/>
<path d="M118.851 31.3308C119.36 31.3308 119.806 31.321 120.191 31.3015C120.591 31.2624 120.922 31.2037 121.184 31.1256V26.582C121.03 26.4842 120.776 26.4061 120.422 26.3474C120.083 26.2693 119.668 26.2302 119.175 26.2302C118.851 26.2302 118.505 26.2595 118.135 26.3181C117.781 26.3768 117.45 26.5038 117.142 26.6992C116.85 26.8751 116.603 27.1291 116.403 27.4614C116.203 27.774 116.103 28.1942 116.103 28.7218C116.103 29.699 116.349 30.383 116.842 30.7738C117.335 31.1451 118.005 31.3308 118.851 31.3308ZM118.667 17.6706C119.529 17.6706 120.253 17.8172 120.838 18.1103C121.438 18.3839 121.916 18.7845 122.27 19.3122C122.639 19.8203 122.901 20.4358 123.055 21.1589C123.209 21.8624 123.286 22.6441 123.286 23.504V33.031C123.101 33.07 122.839 33.1287 122.501 33.2068C122.177 33.2655 121.808 33.3241 121.392 33.3827C120.976 33.4414 120.522 33.4902 120.029 33.5293C119.552 33.5879 119.075 33.6172 118.597 33.6172C117.92 33.6172 117.296 33.5293 116.727 33.3534C116.157 33.1775 115.664 32.9039 115.248 32.5326C114.833 32.1418 114.509 31.6337 114.278 31.0083C114.047 30.383 113.932 29.6306 113.932 28.7512C113.932 27.9108 114.063 27.1878 114.325 26.582C114.602 25.9761 114.971 25.4876 115.433 25.1163C115.895 24.745 116.434 24.4714 117.05 24.2955C117.666 24.1196 118.313 24.0317 118.99 24.0317C119.206 24.0317 119.429 24.0512 119.66 24.0903C119.891 24.1098 120.106 24.1489 120.306 24.2075C120.522 24.2466 120.707 24.2857 120.861 24.3248C121.015 24.3639 121.123 24.3932 121.184 24.4127V23.6506C121.184 23.2011 121.146 22.7614 121.069 22.3315C120.992 21.882 120.853 21.4911 120.653 21.1589C120.453 20.8072 120.176 20.5336 119.821 20.3381C119.483 20.1232 119.036 20.0157 118.482 20.0157C117.774 20.0157 117.15 20.0841 116.611 20.2209C116.088 20.3381 115.695 20.4652 115.433 20.602L115.179 18.3448C115.456 18.1885 115.918 18.0419 116.565 17.9051C117.212 17.7488 117.912 17.6706 118.667 17.6706Z" stroke="black" stroke-width="0.2" mask="url(#path-5-outside-1)"/>
</svg>
