<svg width="80" height="80" viewBox="0 0 80 80" fill="none" xmlns="http://www.w3.org/2000/svg">
<path d="M75.3126 44.8438C75.3126 40.9667 72.1584 37.8125 68.2813 37.8125H57.8387C59.1324 34.3145 59.9348 30.1597 60.4038 27.0123C60.8776 23.8352 59.9477 20.6191 57.8527 18.1884C55.764 15.765 52.7309 14.375 49.5313 14.375C48.237 14.375 47.1876 15.4244 47.1876 16.7188C47.1876 22.3808 43.9337 30.9283 40.1363 32.8322C35.862 34.9748 27.4532 37.3494 25.7784 37.8125C24.7327 37.8125 3.35462 37.8125 2.34399 37.8125C1.04962 37.8125 0.000244158 38.8619 0.000244158 40.1562V72.9688C8.79081e-05 74.2631 1.04946 75.3125 2.34384 75.3125H9.37509V77.6562C9.37509 78.9506 10.4245 80 11.7188 80H21.4063C24.269 80 26.7357 78.2795 27.8316 75.8191L44.2754 79.93C44.4613 79.9764 44.6523 80 44.8438 80H58.9063C62.7834 80 65.9376 76.8458 65.9376 72.9688C65.9376 72.0544 65.7621 71.1803 65.4432 70.3783C68.4257 69.5642 70.6251 66.8309 70.6251 63.5938C70.6251 62.6794 70.4496 61.8053 70.1307 61.0033C73.1132 60.1892 75.3126 57.4559 75.3126 54.2188C75.3126 52.4195 74.6334 50.7761 73.5179 49.5312C74.6334 48.2864 75.3126 46.643 75.3126 44.8438ZM9.37493 70.625H4.68743V42.5H9.37493V70.625ZM23.7499 72.9688C23.7499 74.2611 22.6985 75.3125 21.4062 75.3125H14.0624V42.5H23.7499V72.9688ZM54.2188 51.875H68.2813C69.5737 51.875 70.6251 52.9264 70.6251 54.2188C70.6251 55.5111 69.5737 56.5625 68.2813 56.5625C66.5142 56.5625 55.6632 56.5625 54.2188 56.5625C52.9245 56.5625 51.8751 57.6119 51.8751 58.9062C51.8751 60.2006 52.9245 61.25 54.2188 61.25H63.5938C64.8862 61.25 65.9376 62.3014 65.9376 63.5938C65.9376 64.8861 64.8862 65.9375 63.5938 65.9375C62.6002 65.9375 55.2124 65.9375 54.2188 65.9375C52.9245 65.9375 51.8751 66.9869 51.8751 68.2812C51.8751 69.5756 52.9245 70.625 54.2188 70.625H58.9063C60.1987 70.625 61.2501 71.6764 61.2501 72.9688C61.2501 74.2611 60.1987 75.3125 58.9063 75.3125H45.1324L28.4376 71.1389V41.9338C31.5998 41.0258 38.3071 38.9928 42.237 37.0227C47.6198 34.3241 50.9159 25.7884 51.6956 19.4455C52.6926 19.8102 53.5926 20.4255 54.3024 21.2489C55.5062 22.6453 56.0402 24.4941 55.7677 26.3211C54.6576 33.767 53.2649 36.8234 52.1226 39.108C51.7593 39.8345 51.7981 40.6973 52.2251 41.3883C52.6521 42.0792 53.4065 42.5 54.2188 42.5H68.2813C69.5737 42.5 70.6251 43.5514 70.6251 44.8438C70.6251 46.1361 69.5737 47.1875 68.2813 47.1875H54.2188C52.9245 47.1875 51.8751 48.2369 51.8751 49.5312C51.8751 50.8256 52.9245 51.875 54.2188 51.875Z" fill="#2DA660" fill-opacity="0.6"/>
<path d="M51.875 0C50.5806 0 49.5312 1.04937 49.5312 2.34375V7.34375C49.5312 8.63813 50.5806 9.6875 51.875 9.6875C53.1694 9.6875 54.2188 8.63813 54.2188 7.34375V2.34375C54.2188 1.04937 53.1694 0 51.875 0Z" fill="#2DA660" fill-opacity="0.6"/>
<path d="M38.6168 11.8648L35.3023 8.55025C34.3871 7.63494 32.9031 7.63494 31.9878 8.55025C31.0724 9.46557 31.0724 10.9495 31.9878 11.8648L35.3023 15.1793C36.2174 16.0946 37.7017 16.0946 38.6168 15.1793C39.5321 14.264 39.5321 12.7801 38.6168 11.8648Z" fill="#2DA660" fill-opacity="0.6"/>
<path d="M30.781 26.0938H26.0935C24.7991 26.0938 23.7498 27.1431 23.7498 28.4375C23.7498 29.7319 24.7991 30.7812 26.0935 30.7812H30.781C32.0754 30.7812 33.1248 29.7319 33.1248 28.4375C33.1248 27.1431 32.0754 26.0938 30.781 26.0938Z" fill="#2DA660" fill-opacity="0.6"/>
<path d="M77.6562 26.0938H72.9688C71.6744 26.0938 70.625 27.1431 70.625 28.4375C70.625 29.7319 71.6744 30.7812 72.9688 30.7812H77.6562C78.9506 30.7812 80 29.7319 80 28.4375C80 27.1431 78.9506 26.0938 77.6562 26.0938Z" fill="#2DA660" fill-opacity="0.6"/>
<path d="M71.7623 8.55025C70.8472 7.63494 69.3631 7.63494 68.4478 8.55025L65.1333 11.8648C64.2179 12.7801 64.2179 14.264 65.1333 15.1793C66.0484 16.0946 67.5326 16.0946 68.4478 15.1793L71.7623 11.8648C72.6776 10.9495 72.6776 9.46557 71.7623 8.55025Z" fill="#2DA660" fill-opacity="0.6"/>
</svg>
