<svg width="140" height="33" viewBox="0 0 140 33" fill="none" xmlns="http://www.w3.org/2000/svg">
<path d="M5.7832 11.3066V26.1262C5.7832 26.4833 5.96544 26.8404 6.32993 27.019L13.402 31.0582C13.7665 31.2368 14.5617 31.2368 14.9262 31.0582L22.0027 27.019C22.3672 26.8404 22.5494 26.4833 22.5494 26.1262V11.3066L14.1663 16.1275L5.7832 11.3066Z" fill="#2DA660"/>
<path d="M24.5436 9.75391C24.5436 9.75391 15.3194 3.79585 14.935 3.60365C14.5507 3.41144 13.782 3.41144 13.3976 3.60365C13.0133 3.79585 3.78909 9.75391 3.78909 9.75391C3.78909 9.75391 3.40475 9.95982 3.40475 10.1383V24.5941C3.40475 24.9511 3.27406 24.9648 3.00031 24.9511C2.34222 24.9181 1.24188 23.8803 1.06604 23.7018C0.890195 23.5233 0.714355 23.3998 0.714355 23.1664V8.53208C0.714355 8.35362 0.750775 8.16142 1.06604 7.99668C1.3813 7.83194 13.0133 0.336313 13.3976 0.144139C13.782 -0.0480358 14.5507 -0.0480566 14.935 0.144139C15.3194 0.336334 26.9513 7.83194 27.2666 7.99668C27.5818 8.16142 27.6183 8.35362 27.6183 8.53208V23.1664C27.6183 23.3998 27.4424 23.5233 27.2666 23.7018C27.0907 23.8803 25.9904 24.9181 25.3323 24.9511C25.0586 24.9648 24.9279 24.9511 24.9279 24.5941V10.1383C24.9279 9.95982 24.5436 9.75391 24.5436 9.75391Z" fill="#2DA660"/>
<path d="M20.1098 9.96513L14.1662 6.57227L8.22266 9.96513L14.1662 13.5366L20.1098 9.96513Z" fill="white"/>
<path d="M100.921 22.5464V23.7818H93.9031V9.27148H95.0249V22.5464H100.921Z" fill="white"/>
<path d="M104.041 23.7818H102.871V12.867H104.041V23.7818Z" fill="white"/>
<path d="M107.063 12.9566H110.461V14.1082H107.063V19.8663C107.063 20.4805 107.101 20.983 107.178 21.3739C107.266 21.7507 107.387 22.0439 107.541 22.2533C107.695 22.4626 107.882 22.6022 108.102 22.672C108.322 22.7418 108.564 22.7767 108.828 22.7767C109.279 22.7767 109.642 22.7139 109.917 22.5883C110.192 22.4487 110.406 22.3231 110.56 22.2114L110.824 23.3421C110.67 23.4677 110.401 23.6143 110.016 23.7818C109.631 23.9353 109.213 24.0121 108.762 24.0121C108.234 24.0121 107.789 23.9283 107.426 23.7608C107.074 23.5794 106.788 23.3141 106.568 22.9652C106.359 22.6022 106.21 22.1555 106.122 21.6251C106.034 21.0947 105.99 20.4665 105.99 19.7407V9.774L107.063 9.52274V12.9566Z" fill="white"/>
<path d="M112.229 13.3335C112.548 13.2219 112.96 13.0962 113.466 12.9566C113.983 12.817 114.648 12.7473 115.462 12.7473C116.54 12.7473 117.516 13.1451 118 13.9407C118.055 13.8849 118.159 13.7942 118.313 13.6685C118.478 13.5289 118.682 13.3894 118.924 13.2498C119.166 13.1102 119.446 12.9915 119.765 12.8938C120.095 12.7961 120.458 12.7473 120.854 12.7473C121.503 12.7473 122.025 12.8729 122.421 13.1241C122.828 13.3614 123.141 13.7034 123.361 14.1501C123.581 14.5828 123.73 15.1063 123.807 15.7205C123.884 16.3347 123.922 17.0047 123.922 17.7306V23.7818H122.85V18.1703C122.85 17.4584 122.823 16.8442 122.768 16.3277C122.724 15.7973 122.625 15.3645 122.471 15.0295C122.328 14.6806 122.119 14.4223 121.844 14.2548C121.569 14.0733 121.211 13.9826 120.771 13.9826C120.441 13.9826 120.139 14.0245 119.864 14.1082C119.6 14.178 119.369 14.2688 119.171 14.3804C118.973 14.4921 118.808 14.6038 118.676 14.7155C118.555 14.8271 118.467 14.9109 118.412 14.9667C118.511 15.3296 118.583 15.7414 118.627 16.2021C118.682 16.6488 118.709 17.1234 118.709 17.6259V23.7818H117.442V18.1703C117.442 17.4584 117.415 16.8442 117.36 16.3277C117.316 15.7973 117.217 15.3645 117.063 15.0295C116.909 14.6806 116.689 14.4223 116.403 14.2548C116.128 14.0733 115.759 13.9826 115.297 13.9826C114.78 13.9826 114.341 14.0175 113.978 14.0873C113.626 14.1571 113.4 14.2199 113.301 14.2758V23.7818H112.229V13.3335Z" fill="white"/>
<path d="M132.504 23.4049C132.185 23.5165 131.776 23.6422 131.237 23.7818C130.698 23.9214 130.039 23.9911 129.258 23.9911C128.62 23.9911 128.086 23.8725 127.658 23.6352C127.229 23.3979 126.882 23.0629 126.618 22.6302C126.354 22.1974 126.162 21.674 126.041 21.0598C125.931 20.4456 125.876 19.7686 125.876 19.0288V12.9566H126.948V18.5891C126.948 19.3568 126.992 20.0059 127.08 20.5363C127.168 21.0668 127.311 21.4995 127.509 21.8345C127.707 22.1555 127.96 22.3928 128.268 22.5464C128.587 22.686 128.972 22.7558 129.423 22.7558C129.929 22.7558 130.369 22.7209 130.742 22.6511C131.116 22.5813 131.227 22.5185 131.326 22.4626L131.335 12.9566H132.504V23.4049Z" fill="white"/>
<path d="M136.766 22.8186C137.382 22.8186 137.888 22.693 138.284 22.4417C138.691 22.1765 138.895 21.7368 138.895 21.1226C138.895 20.8295 138.856 20.5782 138.779 20.3688C138.713 20.1594 138.598 19.971 138.433 19.8035C138.268 19.636 138.048 19.4754 137.773 19.3219C137.509 19.1683 137.179 18.9869 136.783 18.7775C136.464 18.61 136.162 18.4425 135.876 18.275C135.59 18.0935 135.337 17.8911 135.117 17.6678C134.897 17.4305 134.721 17.1513 134.589 16.8302C134.457 16.5092 134.391 16.1183 134.391 15.6577C134.391 14.7783 134.649 14.0664 135.166 13.522C135.694 12.9776 136.415 12.7054 137.327 12.7054C137.91 12.7054 138.389 12.7682 138.763 12.8938C139.148 13.0194 139.417 13.1311 139.571 13.2288L139.324 14.4433C139.192 14.3595 138.966 14.2478 138.647 14.1082C138.339 13.9687 137.883 13.8989 137.278 13.8989C137.036 13.8989 136.805 13.9338 136.585 14.0036C136.376 14.0594 136.189 14.1571 136.024 14.2967C135.859 14.4223 135.727 14.5898 135.628 14.7992C135.529 14.9946 135.48 15.2389 135.48 15.5321C135.48 15.8252 135.524 16.0764 135.612 16.2858C135.7 16.4952 135.826 16.6837 135.991 16.8512C136.167 17.0047 136.376 17.1513 136.618 17.2909C136.871 17.4305 137.157 17.584 137.476 17.7515C137.806 17.919 138.119 18.0935 138.416 18.275C138.724 18.4425 138.994 18.6519 139.225 18.9031C139.456 19.1404 139.642 19.4336 139.785 19.7825C139.928 20.1175 140 20.5433 140 21.0598C140 22.0369 139.708 22.7767 139.126 23.2792C138.554 23.7818 137.767 24.033 136.766 24.033C136.019 24.033 135.447 23.9493 135.051 23.7818C134.655 23.6282 134.391 23.5096 134.259 23.4258L134.539 22.1904C134.572 22.2184 134.644 22.2672 134.754 22.337C134.864 22.3929 135.012 22.4626 135.199 22.5464C135.386 22.6162 135.606 22.679 135.859 22.7348C136.123 22.7907 136.426 22.8186 136.766 22.8186Z" fill="white"/>
<path d="M102.881 10.9194C103.039 11.0574 103.225 11.1264 103.439 11.1264C103.652 11.1264 103.834 11.0574 103.983 10.9194C104.141 10.7721 104.22 10.5789 104.22 10.3396C104.22 10.1003 104.141 9.91166 103.983 9.77361C103.834 9.62637 103.652 9.55275 103.439 9.55275C103.225 9.55275 103.039 9.62637 102.881 9.77361C102.732 9.91166 102.66 10.1005 102.66 10.3398C102.66 10.5791 102.732 10.7721 102.881 10.9194Z" fill="white"/>
<mask id="path-5-outside-1" maskUnits="userSpaceOnUse" x="36.1428" y="6.5332" width="52" height="18" fill="black">
<rect fill="white" x="36.1428" y="6.5332" width="52" height="18"/>
<path d="M45.6058 9.27109C45.2649 9.74569 44.88 10.2761 44.451 10.8624C44.0221 11.4347 43.5712 12.028 43.0983 12.6422C42.6364 13.2424 42.1744 13.8356 41.7125 14.4219C41.2506 15.0082 40.8162 15.5526 40.4092 16.0551C40.8822 16.4739 41.3826 16.9904 41.9105 17.6046C42.4384 18.2187 42.9553 18.8748 43.4612 19.5728C43.9671 20.2707 44.44 20.9826 44.88 21.7085C45.3309 22.4343 45.7048 23.1253 46.0018 23.7814H44.1211C43.7912 23.1253 43.4117 22.4692 42.9828 21.8132C42.5539 21.1431 42.0975 20.508 41.6135 19.9078C41.1406 19.2936 40.6567 18.7282 40.1618 18.2118C39.6779 17.6953 39.205 17.2556 38.743 16.8926V23.7814H37.1428V9.27109H38.743V15.6782C39.128 15.2176 39.5514 14.7011 40.0133 14.1288C40.4752 13.5425 40.9317 12.9562 41.3826 12.37C41.8335 11.7837 42.2569 11.2253 42.6529 10.6949C43.0598 10.1505 43.4007 9.67589 43.6757 9.27109H45.6058Z"/>
<path d="M54.0393 23.4673C53.6874 23.579 53.22 23.6976 52.6371 23.8232C52.0652 23.9489 51.3998 24.0117 50.6409 24.0117C49.981 24.0117 49.4256 23.893 48.9747 23.6557C48.5238 23.4045 48.1609 23.0555 47.8859 22.6088C47.611 22.1621 47.413 21.6387 47.292 21.0384C47.171 20.4242 47.1105 19.7472 47.1105 19.0074V12.8934H48.6448V18.5887C48.6448 19.9147 48.8097 20.864 49.1397 21.4363C49.4696 22.0086 50.025 22.2947 50.8059 22.2947C50.9709 22.2947 51.1413 22.2878 51.3173 22.2738C51.4933 22.2598 51.6582 22.2459 51.8122 22.2319C51.9662 22.204 52.1037 22.1831 52.2246 22.1691C52.3566 22.1412 52.4501 22.1133 52.5051 22.0854V12.8934H54.0393V23.4673Z"/>
<path d="M57.8268 13.375C58.0138 13.2215 58.2942 13.0609 58.6681 12.8934C59.0531 12.7259 59.493 12.6422 59.9879 12.6422C60.6038 12.6422 61.1482 12.7817 61.6211 13.0609C62.105 13.3401 62.512 13.731 62.8419 14.2335C63.1718 14.736 63.4193 15.3362 63.5843 16.0342C63.7602 16.7321 63.8482 17.4999 63.8482 18.3374C63.8482 19.2168 63.7437 20.0125 63.5348 20.7244C63.3368 21.4223 63.0509 22.0156 62.6769 22.5041C62.303 22.9927 61.8521 23.3696 61.3242 23.6348C60.7963 23.9 60.2024 24.0326 59.5425 24.0326C58.8276 24.0326 58.1952 23.9698 57.6453 23.8442C57.0954 23.7185 56.6445 23.5929 56.2926 23.4673V7.86822L57.8268 7.5332V13.375ZM57.8268 22.0854C57.9808 22.1412 58.1952 22.197 58.4702 22.2529C58.7561 22.2947 59.1081 22.3157 59.526 22.3157C60.3508 22.3157 61.0107 21.9737 61.5056 21.2897C62.0006 20.5918 62.248 19.6077 62.248 18.3374C62.248 17.779 62.204 17.2556 62.116 16.767C62.028 16.2785 61.8851 15.8597 61.6871 15.5107C61.4891 15.1478 61.2307 14.8686 60.9117 14.6732C60.6038 14.4638 60.2299 14.3591 59.7899 14.3591C59.372 14.3591 58.9871 14.4498 58.6351 14.6313C58.2832 14.8128 58.0138 15.0012 57.8268 15.1966V22.0854Z"/>
<path d="M65.8013 18.3583C65.8013 17.3952 65.9113 16.5576 66.1313 15.8457C66.3512 15.1199 66.6427 14.5196 67.0056 14.045C67.3685 13.5704 67.7865 13.2145 68.2594 12.9772C68.7323 12.7399 69.2162 12.6212 69.7111 12.6212C70.8659 12.6212 71.7513 13.0819 72.3672 14.0032C72.9831 14.9105 73.291 16.2994 73.291 18.1699C73.291 18.2536 73.291 18.3653 73.291 18.5049C73.291 18.6305 73.2855 18.7492 73.2745 18.8609H67.4015C67.4675 19.9915 67.726 20.85 68.1769 21.4363C68.6278 22.0225 69.3317 22.3157 70.2885 22.3157C70.8274 22.3157 71.2784 22.2598 71.6413 22.1482C72.0152 22.0225 72.2957 21.9039 72.4827 21.7922L72.6971 23.4254C72.5101 23.551 72.1802 23.6837 71.7073 23.8232C71.2454 23.9628 70.7175 24.0326 70.1236 24.0326C69.3757 24.0326 68.7268 23.893 68.1769 23.6139C67.638 23.3207 67.1926 22.9229 66.8406 22.4204C66.4887 21.9178 66.2248 21.3246 66.0488 20.6406C65.8838 19.9427 65.8013 19.1819 65.8013 18.3583ZM71.6908 17.2905C71.7018 16.4111 71.5258 15.6922 71.1629 15.1338C70.8109 14.5615 70.3215 14.2754 69.6946 14.2754C69.3427 14.2754 69.0293 14.3661 68.7543 14.5476C68.4904 14.7151 68.2649 14.9384 68.0779 15.2176C67.891 15.4968 67.7425 15.8178 67.6325 16.1807C67.5335 16.5437 67.4675 16.9136 67.4345 17.2905H71.6908Z"/>
<path d="M78.5216 12.6631C78.6536 12.6631 78.8021 12.6771 78.967 12.705C79.143 12.7189 79.3135 12.7469 79.4784 12.7887C79.6434 12.8166 79.7919 12.8515 79.9239 12.8934C80.0668 12.9213 80.1713 12.9493 80.2373 12.9772L79.9734 14.6732C79.8524 14.6173 79.6489 14.5545 79.363 14.4847C79.088 14.401 78.7306 14.3591 78.2906 14.3591C78.0047 14.3591 77.7188 14.401 77.4328 14.4847C77.1578 14.5545 76.9764 14.6034 76.8884 14.6313V23.7814H75.3542V13.3541C75.7171 13.1866 76.168 13.033 76.7069 12.8934C77.2458 12.7399 77.8507 12.6631 78.5216 12.6631Z"/>
<path d="M84.8939 22.3785C85.2568 22.3785 85.5757 22.3715 85.8507 22.3576C86.1366 22.3296 86.3731 22.2878 86.5601 22.2319V18.9865C86.4501 18.9167 86.2686 18.8609 86.0157 18.819C85.7737 18.7631 85.4768 18.7352 85.1248 18.7352C84.8939 18.7352 84.6464 18.7562 84.3825 18.798C84.1295 18.8399 83.893 18.9306 83.6731 19.0702C83.4641 19.1959 83.2881 19.3773 83.1452 19.6146C83.0022 19.838 82.9307 20.1381 82.9307 20.515C82.9307 21.2129 83.1067 21.7015 83.4586 21.9807C83.8105 22.2459 84.289 22.3785 84.8939 22.3785ZM84.7619 12.6212C85.3778 12.6212 85.8947 12.7259 86.3126 12.9353C86.7415 13.1307 87.0825 13.4169 87.3354 13.7938C87.5994 14.1567 87.7864 14.5964 87.8963 15.1129C88.0063 15.6154 88.0613 16.1738 88.0613 16.788V23.5929C87.9293 23.6208 87.7424 23.6627 87.5004 23.7185C87.2694 23.7604 87.0055 23.8023 86.7085 23.8442C86.4116 23.8861 86.0871 23.921 85.7352 23.9489C85.3943 23.9907 85.0533 24.0117 84.7124 24.0117C84.2285 24.0117 83.7831 23.9489 83.3761 23.8232C82.9692 23.6976 82.6173 23.5022 82.3203 23.237C82.0234 22.9578 81.7924 22.5949 81.6274 22.1482C81.4625 21.7015 81.38 21.1641 81.38 20.5359C81.38 19.9357 81.4735 19.4192 81.6604 18.9865C81.8584 18.5538 82.1224 18.2048 82.4523 17.9396C82.7822 17.6743 83.1672 17.4789 83.6071 17.3533C84.047 17.2277 84.5089 17.1648 84.9928 17.1648C85.1468 17.1648 85.3063 17.1788 85.4713 17.2067C85.6362 17.2207 85.7902 17.2486 85.9332 17.2905C86.0872 17.3184 86.2191 17.3463 86.3291 17.3742C86.4391 17.4021 86.5161 17.4231 86.5601 17.437V16.8926C86.5601 16.5716 86.5326 16.2575 86.4776 15.9504C86.4226 15.6294 86.3236 15.3502 86.1806 15.1129C86.0377 14.8616 85.8397 14.6662 85.5867 14.5266C85.3448 14.3731 85.0258 14.2963 84.6299 14.2963C84.124 14.2963 83.6786 14.3451 83.2936 14.4429C82.9197 14.5266 82.6393 14.6173 82.4523 14.7151L82.2708 13.1028C82.4688 12.9911 82.7987 12.8864 83.2606 12.7887C83.7226 12.6771 84.223 12.6212 84.7619 12.6212Z"/>
</mask>
<path d="M45.6058 9.27109C45.2649 9.74569 44.88 10.2761 44.451 10.8624C44.0221 11.4347 43.5712 12.028 43.0983 12.6422C42.6364 13.2424 42.1744 13.8356 41.7125 14.4219C41.2506 15.0082 40.8162 15.5526 40.4092 16.0551C40.8822 16.4739 41.3826 16.9904 41.9105 17.6046C42.4384 18.2187 42.9553 18.8748 43.4612 19.5728C43.9671 20.2707 44.44 20.9826 44.88 21.7085C45.3309 22.4343 45.7048 23.1253 46.0018 23.7814H44.1211C43.7912 23.1253 43.4117 22.4692 42.9828 21.8132C42.5539 21.1431 42.0975 20.508 41.6135 19.9078C41.1406 19.2936 40.6567 18.7282 40.1618 18.2118C39.6779 17.6953 39.205 17.2556 38.743 16.8926V23.7814H37.1428V9.27109H38.743V15.6782C39.128 15.2176 39.5514 14.7011 40.0133 14.1288C40.4752 13.5425 40.9317 12.9562 41.3826 12.37C41.8335 11.7837 42.2569 11.2253 42.6529 10.6949C43.0598 10.1505 43.4007 9.67589 43.6757 9.27109H45.6058Z" fill="white"/>
<path d="M54.0393 23.4673C53.6874 23.579 53.22 23.6976 52.6371 23.8232C52.0652 23.9489 51.3998 24.0117 50.6409 24.0117C49.981 24.0117 49.4256 23.893 48.9747 23.6557C48.5238 23.4045 48.1609 23.0555 47.8859 22.6088C47.611 22.1621 47.413 21.6387 47.292 21.0384C47.171 20.4242 47.1105 19.7472 47.1105 19.0074V12.8934H48.6448V18.5887C48.6448 19.9147 48.8097 20.864 49.1397 21.4363C49.4696 22.0086 50.025 22.2947 50.8059 22.2947C50.9709 22.2947 51.1413 22.2878 51.3173 22.2738C51.4933 22.2598 51.6582 22.2459 51.8122 22.2319C51.9662 22.204 52.1037 22.1831 52.2246 22.1691C52.3566 22.1412 52.4501 22.1133 52.5051 22.0854V12.8934H54.0393V23.4673Z" fill="white"/>
<path d="M57.8268 13.375C58.0138 13.2215 58.2942 13.0609 58.6681 12.8934C59.0531 12.7259 59.493 12.6422 59.9879 12.6422C60.6038 12.6422 61.1482 12.7817 61.6211 13.0609C62.105 13.3401 62.512 13.731 62.8419 14.2335C63.1718 14.736 63.4193 15.3362 63.5843 16.0342C63.7602 16.7321 63.8482 17.4999 63.8482 18.3374C63.8482 19.2168 63.7437 20.0125 63.5348 20.7244C63.3368 21.4223 63.0509 22.0156 62.6769 22.5041C62.303 22.9927 61.8521 23.3696 61.3242 23.6348C60.7963 23.9 60.2024 24.0326 59.5425 24.0326C58.8276 24.0326 58.1952 23.9698 57.6453 23.8442C57.0954 23.7185 56.6445 23.5929 56.2926 23.4673V7.86822L57.8268 7.5332V13.375ZM57.8268 22.0854C57.9808 22.1412 58.1952 22.197 58.4702 22.2529C58.7561 22.2947 59.1081 22.3157 59.526 22.3157C60.3508 22.3157 61.0107 21.9737 61.5056 21.2897C62.0006 20.5918 62.248 19.6077 62.248 18.3374C62.248 17.779 62.204 17.2556 62.116 16.767C62.028 16.2785 61.8851 15.8597 61.6871 15.5107C61.4891 15.1478 61.2307 14.8686 60.9117 14.6732C60.6038 14.4638 60.2299 14.3591 59.7899 14.3591C59.372 14.3591 58.9871 14.4498 58.6351 14.6313C58.2832 14.8128 58.0138 15.0012 57.8268 15.1966V22.0854Z" fill="white"/>
<path d="M65.8013 18.3583C65.8013 17.3952 65.9113 16.5576 66.1313 15.8457C66.3512 15.1199 66.6427 14.5196 67.0056 14.045C67.3685 13.5704 67.7865 13.2145 68.2594 12.9772C68.7323 12.7399 69.2162 12.6212 69.7111 12.6212C70.8659 12.6212 71.7513 13.0819 72.3672 14.0032C72.9831 14.9105 73.291 16.2994 73.291 18.1699C73.291 18.2536 73.291 18.3653 73.291 18.5049C73.291 18.6305 73.2855 18.7492 73.2745 18.8609H67.4015C67.4675 19.9915 67.726 20.85 68.1769 21.4363C68.6278 22.0225 69.3317 22.3157 70.2885 22.3157C70.8274 22.3157 71.2784 22.2598 71.6413 22.1482C72.0152 22.0225 72.2957 21.9039 72.4827 21.7922L72.6971 23.4254C72.5101 23.551 72.1802 23.6837 71.7073 23.8232C71.2454 23.9628 70.7175 24.0326 70.1236 24.0326C69.3757 24.0326 68.7268 23.893 68.1769 23.6139C67.638 23.3207 67.1926 22.9229 66.8406 22.4204C66.4887 21.9178 66.2248 21.3246 66.0488 20.6406C65.8838 19.9427 65.8013 19.1819 65.8013 18.3583ZM71.6908 17.2905C71.7018 16.4111 71.5258 15.6922 71.1629 15.1338C70.8109 14.5615 70.3215 14.2754 69.6946 14.2754C69.3427 14.2754 69.0293 14.3661 68.7543 14.5476C68.4904 14.7151 68.2649 14.9384 68.0779 15.2176C67.891 15.4968 67.7425 15.8178 67.6325 16.1807C67.5335 16.5437 67.4675 16.9136 67.4345 17.2905H71.6908Z" fill="white"/>
<path d="M78.5216 12.6631C78.6536 12.6631 78.8021 12.6771 78.967 12.705C79.143 12.7189 79.3135 12.7469 79.4784 12.7887C79.6434 12.8166 79.7919 12.8515 79.9239 12.8934C80.0668 12.9213 80.1713 12.9493 80.2373 12.9772L79.9734 14.6732C79.8524 14.6173 79.6489 14.5545 79.363 14.4847C79.088 14.401 78.7306 14.3591 78.2906 14.3591C78.0047 14.3591 77.7188 14.401 77.4328 14.4847C77.1578 14.5545 76.9764 14.6034 76.8884 14.6313V23.7814H75.3542V13.3541C75.7171 13.1866 76.168 13.033 76.7069 12.8934C77.2458 12.7399 77.8507 12.6631 78.5216 12.6631Z" fill="white"/>
<path d="M84.8939 22.3785C85.2568 22.3785 85.5757 22.3715 85.8507 22.3576C86.1366 22.3296 86.3731 22.2878 86.5601 22.2319V18.9865C86.4501 18.9167 86.2686 18.8609 86.0157 18.819C85.7737 18.7631 85.4768 18.7352 85.1248 18.7352C84.8939 18.7352 84.6464 18.7562 84.3825 18.798C84.1295 18.8399 83.893 18.9306 83.6731 19.0702C83.4641 19.1959 83.2881 19.3773 83.1452 19.6146C83.0022 19.838 82.9307 20.1381 82.9307 20.515C82.9307 21.2129 83.1067 21.7015 83.4586 21.9807C83.8105 22.2459 84.289 22.3785 84.8939 22.3785ZM84.7619 12.6212C85.3778 12.6212 85.8947 12.7259 86.3126 12.9353C86.7415 13.1307 87.0825 13.4169 87.3354 13.7938C87.5994 14.1567 87.7864 14.5964 87.8963 15.1129C88.0063 15.6154 88.0613 16.1738 88.0613 16.788V23.5929C87.9293 23.6208 87.7424 23.6627 87.5004 23.7185C87.2694 23.7604 87.0055 23.8023 86.7085 23.8442C86.4116 23.8861 86.0871 23.921 85.7352 23.9489C85.3943 23.9907 85.0533 24.0117 84.7124 24.0117C84.2285 24.0117 83.7831 23.9489 83.3761 23.8232C82.9692 23.6976 82.6173 23.5022 82.3203 23.237C82.0234 22.9578 81.7924 22.5949 81.6274 22.1482C81.4625 21.7015 81.38 21.1641 81.38 20.5359C81.38 19.9357 81.4735 19.4192 81.6604 18.9865C81.8584 18.5538 82.1224 18.2048 82.4523 17.9396C82.7822 17.6743 83.1672 17.4789 83.6071 17.3533C84.047 17.2277 84.5089 17.1648 84.9928 17.1648C85.1468 17.1648 85.3063 17.1788 85.4713 17.2067C85.6362 17.2207 85.7902 17.2486 85.9332 17.2905C86.0872 17.3184 86.2191 17.3463 86.3291 17.3742C86.4391 17.4021 86.5161 17.4231 86.5601 17.437V16.8926C86.5601 16.5716 86.5326 16.2575 86.4776 15.9504C86.4226 15.6294 86.3236 15.3502 86.1806 15.1129C86.0377 14.8616 85.8397 14.6662 85.5867 14.5266C85.3448 14.3731 85.0258 14.2963 84.6299 14.2963C84.124 14.2963 83.6786 14.3451 83.2936 14.4429C82.9197 14.5266 82.6393 14.6173 82.4523 14.7151L82.2708 13.1028C82.4688 12.9911 82.7987 12.8864 83.2606 12.7887C83.7226 12.6771 84.223 12.6212 84.7619 12.6212Z" fill="white"/>
<path d="M45.6058 9.27109C45.2649 9.74569 44.88 10.2761 44.451 10.8624C44.0221 11.4347 43.5712 12.028 43.0983 12.6422C42.6364 13.2424 42.1744 13.8356 41.7125 14.4219C41.2506 15.0082 40.8162 15.5526 40.4092 16.0551C40.8822 16.4739 41.3826 16.9904 41.9105 17.6046C42.4384 18.2187 42.9553 18.8748 43.4612 19.5728C43.9671 20.2707 44.44 20.9826 44.88 21.7085C45.3309 22.4343 45.7048 23.1253 46.0018 23.7814H44.1211C43.7912 23.1253 43.4117 22.4692 42.9828 21.8132C42.5539 21.1431 42.0975 20.508 41.6135 19.9078C41.1406 19.2936 40.6567 18.7282 40.1618 18.2118C39.6779 17.6953 39.205 17.2556 38.743 16.8926V23.7814H37.1428V9.27109H38.743V15.6782C39.128 15.2176 39.5514 14.7011 40.0133 14.1288C40.4752 13.5425 40.9317 12.9562 41.3826 12.37C41.8335 11.7837 42.2569 11.2253 42.6529 10.6949C43.0598 10.1505 43.4007 9.67589 43.6757 9.27109H45.6058Z" stroke="white" stroke-width="0.142857" mask="url(#path-5-outside-1)"/>
<path d="M54.0393 23.4673C53.6874 23.579 53.22 23.6976 52.6371 23.8232C52.0652 23.9489 51.3998 24.0117 50.6409 24.0117C49.981 24.0117 49.4256 23.893 48.9747 23.6557C48.5238 23.4045 48.1609 23.0555 47.8859 22.6088C47.611 22.1621 47.413 21.6387 47.292 21.0384C47.171 20.4242 47.1105 19.7472 47.1105 19.0074V12.8934H48.6448V18.5887C48.6448 19.9147 48.8097 20.864 49.1397 21.4363C49.4696 22.0086 50.025 22.2947 50.8059 22.2947C50.9709 22.2947 51.1413 22.2878 51.3173 22.2738C51.4933 22.2598 51.6582 22.2459 51.8122 22.2319C51.9662 22.204 52.1037 22.1831 52.2246 22.1691C52.3566 22.1412 52.4501 22.1133 52.5051 22.0854V12.8934H54.0393V23.4673Z" stroke="white" stroke-width="0.142857" mask="url(#path-5-outside-1)"/>
<path d="M57.8268 13.375C58.0138 13.2215 58.2942 13.0609 58.6681 12.8934C59.0531 12.7259 59.493 12.6422 59.9879 12.6422C60.6038 12.6422 61.1482 12.7817 61.6211 13.0609C62.105 13.3401 62.512 13.731 62.8419 14.2335C63.1718 14.736 63.4193 15.3362 63.5843 16.0342C63.7602 16.7321 63.8482 17.4999 63.8482 18.3374C63.8482 19.2168 63.7437 20.0125 63.5348 20.7244C63.3368 21.4223 63.0509 22.0156 62.6769 22.5041C62.303 22.9927 61.8521 23.3696 61.3242 23.6348C60.7963 23.9 60.2024 24.0326 59.5425 24.0326C58.8276 24.0326 58.1952 23.9698 57.6453 23.8442C57.0954 23.7185 56.6445 23.5929 56.2926 23.4673V7.86822L57.8268 7.5332V13.375ZM57.8268 22.0854C57.9808 22.1412 58.1952 22.197 58.4702 22.2529C58.7561 22.2947 59.1081 22.3157 59.526 22.3157C60.3508 22.3157 61.0107 21.9737 61.5056 21.2897C62.0006 20.5918 62.248 19.6077 62.248 18.3374C62.248 17.779 62.204 17.2556 62.116 16.767C62.028 16.2785 61.8851 15.8597 61.6871 15.5107C61.4891 15.1478 61.2307 14.8686 60.9117 14.6732C60.6038 14.4638 60.2299 14.3591 59.7899 14.3591C59.372 14.3591 58.9871 14.4498 58.6351 14.6313C58.2832 14.8128 58.0138 15.0012 57.8268 15.1966V22.0854Z" stroke="white" stroke-width="0.142857" mask="url(#path-5-outside-1)"/>
<path d="M65.8013 18.3583C65.8013 17.3952 65.9113 16.5576 66.1313 15.8457C66.3512 15.1199 66.6427 14.5196 67.0056 14.045C67.3685 13.5704 67.7865 13.2145 68.2594 12.9772C68.7323 12.7399 69.2162 12.6212 69.7111 12.6212C70.8659 12.6212 71.7513 13.0819 72.3672 14.0032C72.9831 14.9105 73.291 16.2994 73.291 18.1699C73.291 18.2536 73.291 18.3653 73.291 18.5049C73.291 18.6305 73.2855 18.7492 73.2745 18.8609H67.4015C67.4675 19.9915 67.726 20.85 68.1769 21.4363C68.6278 22.0225 69.3317 22.3157 70.2885 22.3157C70.8274 22.3157 71.2784 22.2598 71.6413 22.1482C72.0152 22.0225 72.2957 21.9039 72.4827 21.7922L72.6971 23.4254C72.5101 23.551 72.1802 23.6837 71.7073 23.8232C71.2454 23.9628 70.7175 24.0326 70.1236 24.0326C69.3757 24.0326 68.7268 23.893 68.1769 23.6139C67.638 23.3207 67.1926 22.9229 66.8406 22.4204C66.4887 21.9178 66.2248 21.3246 66.0488 20.6406C65.8838 19.9427 65.8013 19.1819 65.8013 18.3583ZM71.6908 17.2905C71.7018 16.4111 71.5258 15.6922 71.1629 15.1338C70.8109 14.5615 70.3215 14.2754 69.6946 14.2754C69.3427 14.2754 69.0293 14.3661 68.7543 14.5476C68.4904 14.7151 68.2649 14.9384 68.0779 15.2176C67.891 15.4968 67.7425 15.8178 67.6325 16.1807C67.5335 16.5437 67.4675 16.9136 67.4345 17.2905H71.6908Z" stroke="white" stroke-width="0.142857" mask="url(#path-5-outside-1)"/>
<path d="M78.5216 12.6631C78.6536 12.6631 78.8021 12.6771 78.967 12.705C79.143 12.7189 79.3135 12.7469 79.4784 12.7887C79.6434 12.8166 79.7919 12.8515 79.9239 12.8934C80.0668 12.9213 80.1713 12.9493 80.2373 12.9772L79.9734 14.6732C79.8524 14.6173 79.6489 14.5545 79.363 14.4847C79.088 14.401 78.7306 14.3591 78.2906 14.3591C78.0047 14.3591 77.7188 14.401 77.4328 14.4847C77.1578 14.5545 76.9764 14.6034 76.8884 14.6313V23.7814H75.3542V13.3541C75.7171 13.1866 76.168 13.033 76.7069 12.8934C77.2458 12.7399 77.8507 12.6631 78.5216 12.6631Z" stroke="white" stroke-width="0.142857" mask="url(#path-5-outside-1)"/>
<path d="M84.8939 22.3785C85.2568 22.3785 85.5757 22.3715 85.8507 22.3576C86.1366 22.3296 86.3731 22.2878 86.5601 22.2319V18.9865C86.4501 18.9167 86.2686 18.8609 86.0157 18.819C85.7737 18.7631 85.4768 18.7352 85.1248 18.7352C84.8939 18.7352 84.6464 18.7562 84.3825 18.798C84.1295 18.8399 83.893 18.9306 83.6731 19.0702C83.4641 19.1959 83.2881 19.3773 83.1452 19.6146C83.0022 19.838 82.9307 20.1381 82.9307 20.515C82.9307 21.2129 83.1067 21.7015 83.4586 21.9807C83.8105 22.2459 84.289 22.3785 84.8939 22.3785ZM84.7619 12.6212C85.3778 12.6212 85.8947 12.7259 86.3126 12.9353C86.7415 13.1307 87.0825 13.4169 87.3354 13.7938C87.5994 14.1567 87.7864 14.5964 87.8963 15.1129C88.0063 15.6154 88.0613 16.1738 88.0613 16.788V23.5929C87.9293 23.6208 87.7424 23.6627 87.5004 23.7185C87.2694 23.7604 87.0055 23.8023 86.7085 23.8442C86.4116 23.8861 86.0871 23.921 85.7352 23.9489C85.3943 23.9907 85.0533 24.0117 84.7124 24.0117C84.2285 24.0117 83.7831 23.9489 83.3761 23.8232C82.9692 23.6976 82.6173 23.5022 82.3203 23.237C82.0234 22.9578 81.7924 22.5949 81.6274 22.1482C81.4625 21.7015 81.38 21.1641 81.38 20.5359C81.38 19.9357 81.4735 19.4192 81.6604 18.9865C81.8584 18.5538 82.1224 18.2048 82.4523 17.9396C82.7822 17.6743 83.1672 17.4789 83.6071 17.3533C84.047 17.2277 84.5089 17.1648 84.9928 17.1648C85.1468 17.1648 85.3063 17.1788 85.4713 17.2067C85.6362 17.2207 85.7902 17.2486 85.9332 17.2905C86.0872 17.3184 86.2191 17.3463 86.3291 17.3742C86.4391 17.4021 86.5161 17.4231 86.5601 17.437V16.8926C86.5601 16.5716 86.5326 16.2575 86.4776 15.9504C86.4226 15.6294 86.3236 15.3502 86.1806 15.1129C86.0377 14.8616 85.8397 14.6662 85.5867 14.5266C85.3448 14.3731 85.0258 14.2963 84.6299 14.2963C84.124 14.2963 83.6786 14.3451 83.2936 14.4429C82.9197 14.5266 82.6393 14.6173 82.4523 14.7151L82.2708 13.1028C82.4688 12.9911 82.7987 12.8864 83.2606 12.7887C83.7226 12.6771 84.223 12.6212 84.7619 12.6212Z" stroke="white" stroke-width="0.142857" mask="url(#path-5-outside-1)"/>
</svg>
