<svg width="196" height="46" viewBox="0 0 196 46" fill="none" xmlns="http://www.w3.org/2000/svg">
<path d="M8.09644 15.8301V36.5775C8.09644 37.0774 8.35157 37.5774 8.86185 37.8273L18.7627 43.4823C19.273 43.7323 20.3863 43.7323 20.8966 43.4823L30.8037 37.8273C31.314 37.5774 31.5691 37.0774 31.5691 36.5775V15.8301L19.8328 22.5792L8.09644 15.8301Z" fill="#2DA660"/>
<path d="M34.3609 13.6555C34.3609 13.6555 21.447 5.31419 20.9089 5.04511C20.3708 4.77602 19.2948 4.77602 18.7566 5.04511C18.2185 5.31419 5.30463 13.6555 5.30463 13.6555C5.30463 13.6555 4.76655 13.9438 4.76655 14.1936V34.4318C4.76655 34.9315 4.58359 34.9507 4.20034 34.9315C3.279 34.8853 1.73853 33.4324 1.49236 33.1825C1.24618 32.9326 1 32.7597 1 32.4329V11.9449C1 11.6951 1.05099 11.426 1.49236 11.1954C1.93372 10.9647 18.2185 0.470838 18.7566 0.201794C19.2948 -0.0672501 20.3708 -0.0672793 20.9089 0.201794C21.447 0.470868 37.7317 10.9647 38.1731 11.1954C38.6145 11.426 38.6655 11.6951 38.6655 11.9449V32.4329C38.6655 32.7597 38.4193 32.9326 38.1731 33.1825C37.9269 33.4324 36.3865 34.8853 35.4652 34.9315C35.0819 34.9507 34.899 34.9315 34.899 34.4318V14.1936C34.899 13.9438 34.3609 13.6555 34.3609 13.6555Z" fill="#2DA660"/>
<path d="M28.1538 13.9512L19.8328 9.20117L11.5118 13.9512L19.8328 18.9512L28.1538 13.9512Z" fill="white"/>
<path d="M141.29 31.5653V33.2949H131.464V12.9805H133.035V31.5653H141.29Z" fill="white"/>
<path d="M145.657 33.2949H144.02V18.0142H145.657V33.2949Z" fill="white"/>
<path d="M149.888 18.1397H154.646V19.7519H149.888V27.8132C149.888 28.6731 149.942 29.3766 150.049 29.9238C150.173 30.4514 150.342 30.8618 150.558 31.155C150.773 31.4481 151.035 31.6435 151.343 31.7412C151.651 31.8389 151.989 31.8878 152.359 31.8878C152.99 31.8878 153.498 31.7999 153.883 31.624C154.268 31.4286 154.569 31.2527 154.784 31.0963L155.154 32.6793C154.938 32.8552 154.561 33.0603 154.022 33.2949C153.483 33.5098 152.898 33.6173 152.267 33.6173C151.528 33.6173 150.904 33.5001 150.396 33.2655C149.903 33.0115 149.503 32.6402 149.195 32.1516C148.902 31.6435 148.694 31.0182 148.571 30.2755C148.448 29.5329 148.387 28.6535 148.387 27.6373V13.684L149.888 13.3322V18.1397Z" fill="white"/>
<path d="M157.121 18.6673C157.567 18.511 158.144 18.3351 158.853 18.1397C159.576 17.9443 160.508 17.8465 161.647 17.8465C163.156 17.8465 164.522 18.4035 165.2 19.5174C165.277 19.4393 165.423 19.3122 165.639 19.1363C165.87 18.9409 166.155 18.7455 166.493 18.5501C166.832 18.3546 167.225 18.1885 167.671 18.0517C168.133 17.9149 168.641 17.8465 169.196 17.8465C170.104 17.8465 170.835 18.0224 171.39 18.3742C171.959 18.7064 172.398 19.1852 172.706 19.8106C173.014 20.4164 173.222 21.1492 173.33 22.0091C173.437 22.869 173.491 23.807 173.491 24.8232V33.2949H171.99V25.4388C171.99 24.4421 171.952 23.5823 171.875 22.8592C171.813 22.1166 171.674 21.5108 171.459 21.0417C171.259 20.5532 170.966 20.1916 170.581 19.9571C170.196 19.7031 169.696 19.576 169.08 19.576C168.618 19.576 168.195 19.6347 167.81 19.7519C167.44 19.8496 167.117 19.9767 166.84 20.133C166.563 20.2893 166.332 20.4457 166.147 20.602C165.977 20.7584 165.854 20.8756 165.777 20.9538C165.916 21.4619 166.016 22.0384 166.078 22.6833C166.155 23.3087 166.193 23.9731 166.193 24.6766V33.2949H164.419V25.4388C164.419 24.4421 164.38 23.5823 164.303 22.8592C164.242 22.1166 164.103 21.5108 163.888 21.0417C163.672 20.5532 163.364 20.1916 162.964 19.9571C162.579 19.7031 162.063 19.576 161.416 19.576C160.693 19.576 160.077 19.6249 159.569 19.7226C159.076 19.8203 158.76 19.9083 158.622 19.9864V33.2949H157.121V18.6673Z" fill="white"/>
<path d="M185.506 32.7672C185.06 32.9236 184.487 33.0994 183.732 33.2949C182.978 33.4903 182.054 33.588 180.961 33.588C180.068 33.588 179.321 33.4219 178.721 33.0897C178.12 32.7574 177.635 32.2884 177.266 31.6826C176.896 31.0768 176.627 30.3439 176.457 29.4841C176.303 28.6242 176.226 27.6764 176.226 26.6406V18.1397H177.727V26.0251C177.727 27.0999 177.789 28.0086 177.912 28.7512C178.035 29.4938 178.236 30.0997 178.513 30.5687C178.79 31.0182 179.144 31.3504 179.575 31.5653C180.022 31.7608 180.561 31.8585 181.192 31.8585C181.9 31.8585 182.516 31.8096 183.04 31.7119C183.563 31.6142 183.718 31.5263 183.857 31.4481L183.868 18.1397H185.506V32.7672Z" fill="white"/>
<path d="M191.473 31.9464C192.335 31.9464 193.044 31.7705 193.598 31.4188C194.168 31.0475 194.452 30.4319 194.452 29.572C194.452 29.1616 194.399 28.8099 194.291 28.5167C194.198 28.2236 194.037 27.9598 193.806 27.7253C193.575 27.4907 193.267 27.266 192.882 27.051C192.512 26.8361 192.051 26.582 191.496 26.2889C191.05 26.0544 190.626 25.8199 190.226 25.5854C189.826 25.3313 189.471 25.0479 189.164 24.7353C188.856 24.403 188.609 24.0122 188.424 23.5627C188.24 23.1132 188.147 22.566 188.147 21.9211C188.147 20.69 188.509 19.6933 189.233 18.9311C189.972 18.169 190.98 17.7879 192.258 17.7879C193.074 17.7879 193.744 17.8759 194.268 18.0517C194.807 18.2276 195.184 18.384 195.399 18.5208L195.053 20.2209C194.868 20.1037 194.553 19.9474 194.106 19.7519C193.675 19.5565 193.036 19.4588 192.189 19.4588C191.85 19.4588 191.527 19.5077 191.219 19.6054C190.927 19.6835 190.665 19.8203 190.434 20.0158C190.203 20.1916 190.018 20.4261 189.879 20.7193C189.741 20.9929 189.672 21.3349 189.672 21.7453C189.672 22.1557 189.733 22.5074 189.856 22.8006C189.98 23.0937 190.157 23.3575 190.388 23.592C190.634 23.807 190.927 24.0122 191.265 24.2076C191.619 24.403 192.02 24.618 192.466 24.8525C192.928 25.087 193.367 25.3313 193.783 25.5854C194.214 25.8199 194.591 26.113 194.914 26.4648C195.238 26.797 195.5 27.2074 195.7 27.6959C195.9 28.165 196 28.761 196 29.4841C196 30.852 195.592 31.8878 194.776 32.5913C193.975 33.2949 192.874 33.6466 191.473 33.6466C190.426 33.6466 189.625 33.5294 189.071 33.2949C188.517 33.0799 188.147 32.9138 187.963 32.7965L188.355 31.067C188.401 31.1061 188.501 31.1745 188.655 31.2722C188.809 31.3504 189.017 31.4481 189.279 31.5653C189.541 31.6631 189.849 31.751 190.203 31.8292C190.572 31.9073 190.996 31.9464 191.473 31.9464Z" fill="white"/>
<path d="M144.033 15.2875C144.254 15.4808 144.515 15.5774 144.814 15.5774C145.114 15.5774 145.367 15.4808 145.576 15.2875C145.797 15.0814 145.908 14.8108 145.908 14.4758C145.908 14.1408 145.797 13.8767 145.576 13.6835C145.367 13.4773 145.114 13.3742 144.814 13.3742C144.515 13.3742 144.254 13.4773 144.033 13.6835C143.825 13.8767 143.724 14.1411 143.724 14.4761C143.724 14.8111 143.825 15.0814 144.033 15.2875Z" fill="white"/>
<mask id="path-5-outside-1" maskUnits="userSpaceOnUse" x="51" y="9.54688" width="73" height="25" fill="black">
<rect fill="white" x="51" y="9.54688" width="73" height="25"/>
<path d="M63.8482 12.9799C63.3709 13.6444 62.832 14.387 62.2315 15.2078C61.631 16.009 60.9997 16.8395 60.3376 17.6994C59.6909 18.5397 59.0443 19.3703 58.3976 20.1911C57.7509 21.0119 57.1427 21.774 56.573 22.4775C57.2351 23.0638 57.9357 23.7869 58.6747 24.6468C59.4138 25.5066 60.1375 26.4251 60.8457 27.4022C61.554 28.3794 62.2161 29.376 62.832 30.3922C63.4633 31.4085 63.9868 32.3758 64.4025 33.2943H61.7696C61.3077 32.3758 60.7765 31.4573 60.176 30.5388C59.5755 29.6008 58.9365 28.7116 58.259 27.8713C57.5969 27.0114 56.9194 26.2199 56.2266 25.4969C55.5491 24.7738 54.887 24.1582 54.2403 23.6501V33.2943H52V12.9799H54.2403V21.9499C54.7792 21.305 55.372 20.5819 56.0187 19.7807C56.6654 18.9599 57.3044 18.1391 57.9357 17.3183C58.5669 16.4976 59.1597 15.7159 59.714 14.9732C60.2837 14.2111 60.7611 13.5466 61.146 12.9799H63.8482Z"/>
<path d="M75.6551 32.8546C75.1624 33.0109 74.508 33.177 73.692 33.3529C72.8913 33.5288 71.9598 33.6168 70.8973 33.6168C69.9735 33.6168 69.1959 33.4506 68.5647 33.1184C67.9334 32.7667 67.4253 32.2781 67.0403 31.6527C66.6554 31.0274 66.3782 30.2945 66.2089 29.4542C66.0395 28.5943 65.9548 27.6465 65.9548 26.6108V18.0512H68.1027V26.0245C68.1027 27.881 68.3337 29.2099 68.7956 30.0112C69.2575 30.8124 70.0351 31.213 71.1283 31.213C71.3593 31.213 71.5979 31.2033 71.8443 31.1837C72.0906 31.1642 72.3216 31.1446 72.5372 31.1251C72.7527 31.086 72.9452 31.0567 73.1146 31.0371C73.2993 30.9981 73.4302 30.959 73.5072 30.9199V18.0512H75.6551V32.8546Z"/>
<path d="M80.9576 18.7254C81.2193 18.5104 81.6119 18.2857 82.1354 18.0512C82.6743 17.8167 83.2902 17.6994 83.9831 17.6994C84.8454 17.6994 85.6075 17.8948 86.2696 18.2857C86.9471 18.6765 87.5168 19.2237 87.9787 19.9273C88.4406 20.6308 88.7871 21.4711 89.018 22.4482C89.2644 23.4254 89.3876 24.5002 89.3876 25.6727C89.3876 26.9039 89.2413 28.0178 88.9487 29.0145C88.6716 29.9916 88.2713 30.8222 87.7478 31.5062C87.2242 32.1902 86.593 32.7178 85.8539 33.0891C85.1148 33.4604 84.2834 33.6461 83.3595 33.6461C82.3587 33.6461 81.4734 33.5581 80.7035 33.3822C79.9336 33.2064 79.3023 33.0305 78.8096 32.8546V11.0159L80.9576 10.5469V18.7254ZM80.9576 30.9199C81.1731 30.9981 81.4734 31.0762 81.8583 31.1544C82.2586 31.213 82.7513 31.2423 83.3364 31.2423C84.4912 31.2423 85.4151 30.7635 86.1079 29.806C86.8008 28.8288 87.1473 27.4511 87.1473 25.6727C87.1473 24.891 87.0857 24.1582 86.9625 23.4742C86.8393 22.7902 86.6391 22.204 86.362 21.7154C86.0848 21.2073 85.723 20.8164 85.2765 20.5428C84.8454 20.2497 84.3219 20.1031 83.706 20.1031C83.1209 20.1031 82.582 20.2302 82.0892 20.4842C81.5965 20.7383 81.2193 21.0021 80.9576 21.2757V30.9199Z"/>
<path d="M92.1219 25.7021C92.1219 24.3536 92.2759 23.1811 92.5838 22.1844C92.8918 21.1682 93.2998 20.3279 93.8079 19.6634C94.316 18.999 94.9011 18.5007 95.5632 18.1684C96.2253 17.8362 96.9028 17.6701 97.5956 17.6701C99.2124 17.6701 100.452 18.315 101.314 19.6048C102.176 20.8751 102.607 22.8195 102.607 25.4382C102.607 25.5555 102.607 25.7118 102.607 25.9073C102.607 26.0831 102.6 26.2492 102.584 26.4056H94.3622C94.4546 27.9885 94.8164 29.1904 95.4477 30.0112C96.079 30.8319 97.0644 31.2423 98.404 31.2423C99.1585 31.2423 99.7898 31.1642 100.298 31.0078C100.821 30.832 101.214 30.6658 101.476 30.5095L101.776 32.796C101.514 32.9719 101.052 33.1575 100.39 33.3529C99.7436 33.5484 99.0045 33.6461 98.173 33.6461C97.126 33.6461 96.2176 33.4506 95.4477 33.0598C94.6933 32.6494 94.0697 32.0924 93.5769 31.3889C93.0842 30.6854 92.7147 29.8548 92.4683 28.8972C92.2374 27.9201 92.1219 26.8551 92.1219 25.7021ZM100.367 24.2071C100.383 22.9759 100.136 21.9694 99.6281 21.1877C99.1354 20.3865 98.4502 19.9859 97.5725 19.9859C97.0798 19.9859 96.641 20.1129 96.2561 20.367C95.8865 20.6015 95.5709 20.9142 95.3091 21.305C95.0474 21.6958 94.8395 22.1453 94.6856 22.6534C94.547 23.1615 94.4546 23.6794 94.4084 24.2071H100.367Z"/>
<path d="M109.93 17.7287C110.115 17.7287 110.323 17.7483 110.554 17.7874C110.8 17.8069 111.039 17.846 111.27 17.9046C111.501 17.9437 111.709 17.9926 111.893 18.0512C112.094 18.0903 112.24 18.1293 112.332 18.1684L111.963 20.5428C111.793 20.4647 111.509 20.3767 111.108 20.279C110.723 20.1618 110.223 20.1031 109.607 20.1031C109.207 20.1031 108.806 20.1618 108.406 20.279C108.021 20.3767 107.767 20.4451 107.644 20.4842V33.2943H105.496V18.6961C106.004 18.4616 106.635 18.2466 107.39 18.0512C108.144 17.8362 108.991 17.7287 109.93 17.7287Z"/>
<path d="M118.851 31.3303C119.36 31.3303 119.806 31.3205 120.191 31.301C120.591 31.2619 120.922 31.2033 121.184 31.1251V26.5815C121.03 26.4838 120.776 26.4056 120.422 26.347C120.083 26.2688 119.668 26.2297 119.175 26.2297C118.851 26.2297 118.505 26.259 118.135 26.3176C117.781 26.3763 117.45 26.5033 117.142 26.6987C116.85 26.8746 116.603 27.1287 116.403 27.4609C116.203 27.7736 116.103 28.1937 116.103 28.7214C116.103 29.6985 116.349 30.3825 116.842 30.7733C117.335 31.1446 118.005 31.3303 118.851 31.3303ZM118.667 17.6701C119.529 17.6701 120.253 17.8167 120.838 18.1098C121.438 18.3834 121.916 18.784 122.27 19.3117C122.639 19.8198 122.901 20.4354 123.055 21.1584C123.209 21.862 123.286 22.6437 123.286 23.5035V33.0305C123.101 33.0696 122.839 33.1282 122.501 33.2064C122.177 33.265 121.808 33.3236 121.392 33.3822C120.976 33.4409 120.522 33.4897 120.029 33.5288C119.552 33.5874 119.075 33.6168 118.597 33.6168C117.92 33.6168 117.296 33.5288 116.727 33.3529C116.157 33.177 115.664 32.9035 115.248 32.5321C114.833 32.1413 114.509 31.6332 114.278 31.0078C114.047 30.3825 113.932 29.6301 113.932 28.7507C113.932 27.9104 114.063 27.1873 114.325 26.5815C114.602 25.9756 114.971 25.4871 115.433 25.1158C115.895 24.7445 116.434 24.4709 117.05 24.295C117.666 24.1191 118.313 24.0312 118.99 24.0312C119.206 24.0312 119.429 24.0507 119.66 24.0898C119.891 24.1093 120.106 24.1484 120.306 24.2071C120.522 24.2461 120.707 24.2852 120.861 24.3243C121.015 24.3634 121.123 24.3927 121.184 24.4123V23.6501C121.184 23.2006 121.146 22.7609 121.069 22.331C120.992 21.8815 120.853 21.4907 120.653 21.1584C120.453 20.8067 120.176 20.5331 119.821 20.3376C119.483 20.1227 119.036 20.0152 118.482 20.0152C117.774 20.0152 117.15 20.0836 116.611 20.2204C116.088 20.3376 115.695 20.4647 115.433 20.6015L115.179 18.3443C115.456 18.188 115.918 18.0414 116.565 17.9046C117.212 17.7483 117.912 17.6701 118.667 17.6701Z"/>
</mask>
<path d="M63.8482 12.9799C63.3709 13.6444 62.832 14.387 62.2315 15.2078C61.631 16.009 60.9997 16.8395 60.3376 17.6994C59.6909 18.5397 59.0443 19.3703 58.3976 20.1911C57.7509 21.0119 57.1427 21.774 56.573 22.4775C57.2351 23.0638 57.9357 23.7869 58.6747 24.6468C59.4138 25.5066 60.1375 26.4251 60.8457 27.4022C61.554 28.3794 62.2161 29.376 62.832 30.3922C63.4633 31.4085 63.9868 32.3758 64.4025 33.2943H61.7696C61.3077 32.3758 60.7765 31.4573 60.176 30.5388C59.5755 29.6008 58.9365 28.7116 58.259 27.8713C57.5969 27.0114 56.9194 26.2199 56.2266 25.4969C55.5491 24.7738 54.887 24.1582 54.2403 23.6501V33.2943H52V12.9799H54.2403V21.9499C54.7792 21.305 55.372 20.5819 56.0187 19.7807C56.6654 18.9599 57.3044 18.1391 57.9357 17.3183C58.5669 16.4976 59.1597 15.7159 59.714 14.9732C60.2837 14.2111 60.7611 13.5466 61.146 12.9799H63.8482Z" fill="white"/>
<path d="M75.6551 32.8546C75.1624 33.0109 74.508 33.177 73.692 33.3529C72.8913 33.5288 71.9598 33.6168 70.8973 33.6168C69.9735 33.6168 69.1959 33.4506 68.5647 33.1184C67.9334 32.7667 67.4253 32.2781 67.0403 31.6527C66.6554 31.0274 66.3782 30.2945 66.2089 29.4542C66.0395 28.5943 65.9548 27.6465 65.9548 26.6108V18.0512H68.1027V26.0245C68.1027 27.881 68.3337 29.2099 68.7956 30.0112C69.2575 30.8124 70.0351 31.213 71.1283 31.213C71.3593 31.213 71.5979 31.2033 71.8443 31.1837C72.0906 31.1642 72.3216 31.1446 72.5372 31.1251C72.7527 31.086 72.9452 31.0567 73.1146 31.0371C73.2993 30.9981 73.4302 30.959 73.5072 30.9199V18.0512H75.6551V32.8546Z" fill="white"/>
<path d="M80.9576 18.7254C81.2193 18.5104 81.6119 18.2857 82.1354 18.0512C82.6743 17.8167 83.2902 17.6994 83.9831 17.6994C84.8454 17.6994 85.6075 17.8948 86.2696 18.2857C86.9471 18.6765 87.5168 19.2237 87.9787 19.9273C88.4406 20.6308 88.7871 21.4711 89.018 22.4482C89.2644 23.4254 89.3876 24.5002 89.3876 25.6727C89.3876 26.9039 89.2413 28.0178 88.9487 29.0145C88.6716 29.9916 88.2713 30.8222 87.7478 31.5062C87.2242 32.1902 86.593 32.7178 85.8539 33.0891C85.1148 33.4604 84.2834 33.6461 83.3595 33.6461C82.3587 33.6461 81.4734 33.5581 80.7035 33.3822C79.9336 33.2064 79.3023 33.0305 78.8096 32.8546V11.0159L80.9576 10.5469V18.7254ZM80.9576 30.9199C81.1731 30.9981 81.4734 31.0762 81.8583 31.1544C82.2586 31.213 82.7513 31.2423 83.3364 31.2423C84.4912 31.2423 85.4151 30.7635 86.1079 29.806C86.8008 28.8288 87.1473 27.4511 87.1473 25.6727C87.1473 24.891 87.0857 24.1582 86.9625 23.4742C86.8393 22.7902 86.6391 22.204 86.362 21.7154C86.0848 21.2073 85.723 20.8164 85.2765 20.5428C84.8454 20.2497 84.3219 20.1031 83.706 20.1031C83.1209 20.1031 82.582 20.2302 82.0892 20.4842C81.5965 20.7383 81.2193 21.0021 80.9576 21.2757V30.9199Z" fill="white"/>
<path d="M92.1219 25.7021C92.1219 24.3536 92.2759 23.1811 92.5838 22.1844C92.8918 21.1682 93.2998 20.3279 93.8079 19.6634C94.316 18.999 94.9011 18.5007 95.5632 18.1684C96.2253 17.8362 96.9028 17.6701 97.5956 17.6701C99.2124 17.6701 100.452 18.315 101.314 19.6048C102.176 20.8751 102.607 22.8195 102.607 25.4382C102.607 25.5555 102.607 25.7118 102.607 25.9073C102.607 26.0831 102.6 26.2492 102.584 26.4056H94.3622C94.4546 27.9885 94.8164 29.1904 95.4477 30.0112C96.079 30.8319 97.0644 31.2423 98.404 31.2423C99.1585 31.2423 99.7898 31.1642 100.298 31.0078C100.821 30.832 101.214 30.6658 101.476 30.5095L101.776 32.796C101.514 32.9719 101.052 33.1575 100.39 33.3529C99.7436 33.5484 99.0045 33.6461 98.173 33.6461C97.126 33.6461 96.2176 33.4506 95.4477 33.0598C94.6933 32.6494 94.0697 32.0924 93.5769 31.3889C93.0842 30.6854 92.7147 29.8548 92.4683 28.8972C92.2374 27.9201 92.1219 26.8551 92.1219 25.7021ZM100.367 24.2071C100.383 22.9759 100.136 21.9694 99.6281 21.1877C99.1354 20.3865 98.4502 19.9859 97.5725 19.9859C97.0798 19.9859 96.641 20.1129 96.2561 20.367C95.8865 20.6015 95.5709 20.9142 95.3091 21.305C95.0474 21.6958 94.8395 22.1453 94.6856 22.6534C94.547 23.1615 94.4546 23.6794 94.4084 24.2071H100.367Z" fill="white"/>
<path d="M109.93 17.7287C110.115 17.7287 110.323 17.7483 110.554 17.7874C110.8 17.8069 111.039 17.846 111.27 17.9046C111.501 17.9437 111.709 17.9926 111.893 18.0512C112.094 18.0903 112.24 18.1293 112.332 18.1684L111.963 20.5428C111.793 20.4647 111.509 20.3767 111.108 20.279C110.723 20.1618 110.223 20.1031 109.607 20.1031C109.207 20.1031 108.806 20.1618 108.406 20.279C108.021 20.3767 107.767 20.4451 107.644 20.4842V33.2943H105.496V18.6961C106.004 18.4616 106.635 18.2466 107.39 18.0512C108.144 17.8362 108.991 17.7287 109.93 17.7287Z" fill="white"/>
<path d="M118.851 31.3303C119.36 31.3303 119.806 31.3205 120.191 31.301C120.591 31.2619 120.922 31.2033 121.184 31.1251V26.5815C121.03 26.4838 120.776 26.4056 120.422 26.347C120.083 26.2688 119.668 26.2297 119.175 26.2297C118.851 26.2297 118.505 26.259 118.135 26.3176C117.781 26.3763 117.45 26.5033 117.142 26.6987C116.85 26.8746 116.603 27.1287 116.403 27.4609C116.203 27.7736 116.103 28.1937 116.103 28.7214C116.103 29.6985 116.349 30.3825 116.842 30.7733C117.335 31.1446 118.005 31.3303 118.851 31.3303ZM118.667 17.6701C119.529 17.6701 120.253 17.8167 120.838 18.1098C121.438 18.3834 121.916 18.784 122.27 19.3117C122.639 19.8198 122.901 20.4354 123.055 21.1584C123.209 21.862 123.286 22.6437 123.286 23.5035V33.0305C123.101 33.0696 122.839 33.1282 122.501 33.2064C122.177 33.265 121.808 33.3236 121.392 33.3822C120.976 33.4409 120.522 33.4897 120.029 33.5288C119.552 33.5874 119.075 33.6168 118.597 33.6168C117.92 33.6168 117.296 33.5288 116.727 33.3529C116.157 33.177 115.664 32.9035 115.248 32.5321C114.833 32.1413 114.509 31.6332 114.278 31.0078C114.047 30.3825 113.932 29.6301 113.932 28.7507C113.932 27.9104 114.063 27.1873 114.325 26.5815C114.602 25.9756 114.971 25.4871 115.433 25.1158C115.895 24.7445 116.434 24.4709 117.05 24.295C117.666 24.1191 118.313 24.0312 118.99 24.0312C119.206 24.0312 119.429 24.0507 119.66 24.0898C119.891 24.1093 120.106 24.1484 120.306 24.2071C120.522 24.2461 120.707 24.2852 120.861 24.3243C121.015 24.3634 121.123 24.3927 121.184 24.4123V23.6501C121.184 23.2006 121.146 22.7609 121.069 22.331C120.992 21.8815 120.853 21.4907 120.653 21.1584C120.453 20.8067 120.176 20.5331 119.821 20.3376C119.483 20.1227 119.036 20.0152 118.482 20.0152C117.774 20.0152 117.15 20.0836 116.611 20.2204C116.088 20.3376 115.695 20.4647 115.433 20.6015L115.179 18.3443C115.456 18.188 115.918 18.0414 116.565 17.9046C117.212 17.7483 117.912 17.6701 118.667 17.6701Z" fill="white"/>
<path d="M63.8482 12.9799C63.3709 13.6444 62.832 14.387 62.2315 15.2078C61.631 16.009 60.9997 16.8395 60.3376 17.6994C59.6909 18.5397 59.0443 19.3703 58.3976 20.1911C57.7509 21.0119 57.1427 21.774 56.573 22.4775C57.2351 23.0638 57.9357 23.7869 58.6747 24.6468C59.4138 25.5066 60.1375 26.4251 60.8457 27.4022C61.554 28.3794 62.2161 29.376 62.832 30.3922C63.4633 31.4085 63.9868 32.3758 64.4025 33.2943H61.7696C61.3077 32.3758 60.7765 31.4573 60.176 30.5388C59.5755 29.6008 58.9365 28.7116 58.259 27.8713C57.5969 27.0114 56.9194 26.2199 56.2266 25.4969C55.5491 24.7738 54.887 24.1582 54.2403 23.6501V33.2943H52V12.9799H54.2403V21.9499C54.7792 21.305 55.372 20.5819 56.0187 19.7807C56.6654 18.9599 57.3044 18.1391 57.9357 17.3183C58.5669 16.4976 59.1597 15.7159 59.714 14.9732C60.2837 14.2111 60.7611 13.5466 61.146 12.9799H63.8482Z" stroke="white" stroke-width="0.2" mask="url(#path-5-outside-1)"/>
<path d="M75.6551 32.8546C75.1624 33.0109 74.508 33.177 73.692 33.3529C72.8913 33.5288 71.9598 33.6168 70.8973 33.6168C69.9735 33.6168 69.1959 33.4506 68.5647 33.1184C67.9334 32.7667 67.4253 32.2781 67.0403 31.6527C66.6554 31.0274 66.3782 30.2945 66.2089 29.4542C66.0395 28.5943 65.9548 27.6465 65.9548 26.6108V18.0512H68.1027V26.0245C68.1027 27.881 68.3337 29.2099 68.7956 30.0112C69.2575 30.8124 70.0351 31.213 71.1283 31.213C71.3593 31.213 71.5979 31.2033 71.8443 31.1837C72.0906 31.1642 72.3216 31.1446 72.5372 31.1251C72.7527 31.086 72.9452 31.0567 73.1146 31.0371C73.2993 30.9981 73.4302 30.959 73.5072 30.9199V18.0512H75.6551V32.8546Z" stroke="white" stroke-width="0.2" mask="url(#path-5-outside-1)"/>
<path d="M80.9576 18.7254C81.2193 18.5104 81.6119 18.2857 82.1354 18.0512C82.6743 17.8167 83.2902 17.6994 83.9831 17.6994C84.8454 17.6994 85.6075 17.8948 86.2696 18.2857C86.9471 18.6765 87.5168 19.2237 87.9787 19.9273C88.4406 20.6308 88.7871 21.4711 89.018 22.4482C89.2644 23.4254 89.3876 24.5002 89.3876 25.6727C89.3876 26.9039 89.2413 28.0178 88.9487 29.0145C88.6716 29.9916 88.2713 30.8222 87.7478 31.5062C87.2242 32.1902 86.593 32.7178 85.8539 33.0891C85.1148 33.4604 84.2834 33.6461 83.3595 33.6461C82.3587 33.6461 81.4734 33.5581 80.7035 33.3822C79.9336 33.2064 79.3023 33.0305 78.8096 32.8546V11.0159L80.9576 10.5469V18.7254ZM80.9576 30.9199C81.1731 30.9981 81.4734 31.0762 81.8583 31.1544C82.2586 31.213 82.7513 31.2423 83.3364 31.2423C84.4912 31.2423 85.4151 30.7635 86.1079 29.806C86.8008 28.8288 87.1473 27.4511 87.1473 25.6727C87.1473 24.891 87.0857 24.1582 86.9625 23.4742C86.8393 22.7902 86.6391 22.204 86.362 21.7154C86.0848 21.2073 85.723 20.8164 85.2765 20.5428C84.8454 20.2497 84.3219 20.1031 83.706 20.1031C83.1209 20.1031 82.582 20.2302 82.0892 20.4842C81.5965 20.7383 81.2193 21.0021 80.9576 21.2757V30.9199Z" stroke="white" stroke-width="0.2" mask="url(#path-5-outside-1)"/>
<path d="M92.1219 25.7021C92.1219 24.3536 92.2759 23.1811 92.5838 22.1844C92.8918 21.1682 93.2998 20.3279 93.8079 19.6634C94.316 18.999 94.9011 18.5007 95.5632 18.1684C96.2253 17.8362 96.9028 17.6701 97.5956 17.6701C99.2124 17.6701 100.452 18.315 101.314 19.6048C102.176 20.8751 102.607 22.8195 102.607 25.4382C102.607 25.5555 102.607 25.7118 102.607 25.9073C102.607 26.0831 102.6 26.2492 102.584 26.4056H94.3622C94.4546 27.9885 94.8164 29.1904 95.4477 30.0112C96.079 30.8319 97.0644 31.2423 98.404 31.2423C99.1585 31.2423 99.7898 31.1642 100.298 31.0078C100.821 30.832 101.214 30.6658 101.476 30.5095L101.776 32.796C101.514 32.9719 101.052 33.1575 100.39 33.3529C99.7436 33.5484 99.0045 33.6461 98.173 33.6461C97.126 33.6461 96.2176 33.4506 95.4477 33.0598C94.6933 32.6494 94.0697 32.0924 93.5769 31.3889C93.0842 30.6854 92.7147 29.8548 92.4683 28.8972C92.2374 27.9201 92.1219 26.8551 92.1219 25.7021ZM100.367 24.2071C100.383 22.9759 100.136 21.9694 99.6281 21.1877C99.1354 20.3865 98.4502 19.9859 97.5725 19.9859C97.0798 19.9859 96.641 20.1129 96.2561 20.367C95.8865 20.6015 95.5709 20.9142 95.3091 21.305C95.0474 21.6958 94.8395 22.1453 94.6856 22.6534C94.547 23.1615 94.4546 23.6794 94.4084 24.2071H100.367Z" stroke="white" stroke-width="0.2" mask="url(#path-5-outside-1)"/>
<path d="M109.93 17.7287C110.115 17.7287 110.323 17.7483 110.554 17.7874C110.8 17.8069 111.039 17.846 111.27 17.9046C111.501 17.9437 111.709 17.9926 111.893 18.0512C112.094 18.0903 112.24 18.1293 112.332 18.1684L111.963 20.5428C111.793 20.4647 111.509 20.3767 111.108 20.279C110.723 20.1618 110.223 20.1031 109.607 20.1031C109.207 20.1031 108.806 20.1618 108.406 20.279C108.021 20.3767 107.767 20.4451 107.644 20.4842V33.2943H105.496V18.6961C106.004 18.4616 106.635 18.2466 107.39 18.0512C108.144 17.8362 108.991 17.7287 109.93 17.7287Z" stroke="white" stroke-width="0.2" mask="url(#path-5-outside-1)"/>
<path d="M118.851 31.3303C119.36 31.3303 119.806 31.3205 120.191 31.301C120.591 31.2619 120.922 31.2033 121.184 31.1251V26.5815C121.03 26.4838 120.776 26.4056 120.422 26.347C120.083 26.2688 119.668 26.2297 119.175 26.2297C118.851 26.2297 118.505 26.259 118.135 26.3176C117.781 26.3763 117.45 26.5033 117.142 26.6987C116.85 26.8746 116.603 27.1287 116.403 27.4609C116.203 27.7736 116.103 28.1937 116.103 28.7214C116.103 29.6985 116.349 30.3825 116.842 30.7733C117.335 31.1446 118.005 31.3303 118.851 31.3303ZM118.667 17.6701C119.529 17.6701 120.253 17.8167 120.838 18.1098C121.438 18.3834 121.916 18.784 122.27 19.3117C122.639 19.8198 122.901 20.4354 123.055 21.1584C123.209 21.862 123.286 22.6437 123.286 23.5035V33.0305C123.101 33.0696 122.839 33.1282 122.501 33.2064C122.177 33.265 121.808 33.3236 121.392 33.3822C120.976 33.4409 120.522 33.4897 120.029 33.5288C119.552 33.5874 119.075 33.6168 118.597 33.6168C117.92 33.6168 117.296 33.5288 116.727 33.3529C116.157 33.177 115.664 32.9035 115.248 32.5321C114.833 32.1413 114.509 31.6332 114.278 31.0078C114.047 30.3825 113.932 29.6301 113.932 28.7507C113.932 27.9104 114.063 27.1873 114.325 26.5815C114.602 25.9756 114.971 25.4871 115.433 25.1158C115.895 24.7445 116.434 24.4709 117.05 24.295C117.666 24.1191 118.313 24.0312 118.99 24.0312C119.206 24.0312 119.429 24.0507 119.66 24.0898C119.891 24.1093 120.106 24.1484 120.306 24.2071C120.522 24.2461 120.707 24.2852 120.861 24.3243C121.015 24.3634 121.123 24.3927 121.184 24.4123V23.6501C121.184 23.2006 121.146 22.7609 121.069 22.331C120.992 21.8815 120.853 21.4907 120.653 21.1584C120.453 20.8067 120.176 20.5331 119.821 20.3376C119.483 20.1227 119.036 20.0152 118.482 20.0152C117.774 20.0152 117.15 20.0836 116.611 20.2204C116.088 20.3376 115.695 20.4647 115.433 20.6015L115.179 18.3443C115.456 18.188 115.918 18.0414 116.565 17.9046C117.212 17.7483 117.912 17.6701 118.667 17.6701Z" stroke="white" stroke-width="0.2" mask="url(#path-5-outside-1)"/>
</svg>
