<svg width="60" height="60" viewBox="0 0 60 60" fill="none" xmlns="http://www.w3.org/2000/svg">
<path d="M46.875 60H13.125C10.025 60 7.5 57.4775 7.5 54.375V28.125C7.5 25.0225 10.025 22.5 13.125 22.5H46.875C49.975 22.5 52.5 25.0225 52.5 28.125V54.375C52.5 57.4775 49.975 60 46.875 60ZM13.125 26.25C12.0925 26.25 11.25 27.09 11.25 28.125V54.375C11.25 55.41 12.0925 56.25 13.125 56.25H46.875C47.9075 56.25 48.75 55.41 48.75 54.375V28.125C48.75 27.09 47.9075 26.25 46.875 26.25H13.125Z" fill="#0E4F39"/>
<path d="M43.125 26.25C42.09 26.25 41.25 25.41 41.25 24.375V15C41.25 8.7975 36.2025 3.75 30 3.75C23.7975 3.75 18.75 8.7975 18.75 15V24.375C18.75 25.41 17.91 26.25 16.875 26.25C15.84 26.25 15 25.41 15 24.375V15C15 6.7275 21.7275 0 30 0C38.2725 0 45 6.7275 45 15V24.375C45 25.41 44.16 26.25 43.125 26.25Z" fill="#0E4F39"/>
<path d="M30 42.499C27.2425 42.499 25 40.2565 25 37.499C25 34.7415 27.2425 32.499 30 32.499C32.7575 32.499 35 34.7415 35 37.499C35 40.2565 32.7575 42.499 30 42.499ZM30 36.249C29.3125 36.249 28.75 36.809 28.75 37.499C28.75 38.189 29.3125 38.749 30 38.749C30.6875 38.749 31.25 38.189 31.25 37.499C31.25 36.809 30.6875 36.249 30 36.249Z" fill="#0E4F39"/>
<path d="M30 50C28.965 50 28.125 49.16 28.125 48.125V41.25C28.125 40.215 28.965 39.375 30 39.375C31.035 39.375 31.875 40.215 31.875 41.25V48.125C31.875 49.16 31.035 50 30 50Z" fill="#0E4F39"/>
</svg>
