<svg width="98" height="24" viewBox="0 0 98 24" fill="none" xmlns="http://www.w3.org/2000/svg">
<rect width="3.10768" height="13.9845" transform="matrix(0.698378 0.715729 -0.698378 0.715729 10.2666 1.54883)" fill="white"/>
<rect width="3.10768" height="13.9845" transform="matrix(0.698378 -0.715729 0.698378 0.715729 0.5 11.5576)" fill="white"/>
<path fill-rule="evenodd" clip-rule="evenodd" d="M17.571 22.3365L7.05518 11.5594L17.571 0.782227L18.4467 1.67963L16.4043 3.77278L24.0005 11.5577L16.4043 19.3426L18.4483 21.4374L17.571 22.3365Z" fill="white"/>
<path d="M20.5097 1.54883L18.3394 3.77308L28.1059 13.7822L30.2762 11.558L20.5097 1.54883Z" fill="#D074D1"/>
<path d="M30.2762 11.558L28.1059 9.33373L18.3394 19.3429L20.5097 21.5671L30.2762 11.558Z" fill="#D074D1"/>
<path d="M47.2631 18.0215H44.1795L39.331 11.6603V18.0215H36.6546V4.44572H39.331V10.4385L43.9856 4.44572H47.0692L42.0462 11.0397L47.2631 18.0215ZM54.1034 8.32451H56.6053V18.0215H54.1034V16.9354C53.4958 17.8405 52.5325 18.293 51.2137 18.293C50.1535 18.293 49.2743 17.9374 48.5762 17.2263C47.8909 16.5152 47.5483 15.5326 47.5483 14.2785V8.32451H50.0501V13.9682C50.0501 14.6146 50.2247 15.1124 50.5737 15.4615C50.9228 15.7976 51.3883 15.9657 51.9701 15.9657C52.6166 15.9657 53.1337 15.7653 53.5216 15.3645C53.9095 14.9637 54.1034 14.3625 54.1034 13.5609V8.32451ZM64.1524 8.053C65.4582 8.053 66.5702 8.55078 67.4881 9.54633C68.419 10.529 68.8845 11.7378 68.8845 13.173C68.8845 14.6082 68.419 15.8235 67.4881 16.8191C66.5702 17.8017 65.4582 18.293 64.1524 18.293C62.7948 18.293 61.7475 17.8211 61.0106 16.8772V18.0215H58.5087V4.44572H61.0106V9.46876C61.7475 8.52492 62.7948 8.053 64.1524 8.053ZM61.7669 15.1512C62.2712 15.6554 62.9112 15.9075 63.6869 15.9075C64.4627 15.9075 65.1027 15.6554 65.6069 15.1512C66.1241 14.634 66.3827 13.9746 66.3827 13.173C66.3827 12.3714 66.1241 11.7185 65.6069 11.2142C65.1027 10.697 64.4627 10.4385 63.6869 10.4385C62.9112 10.4385 62.2712 10.697 61.7669 11.2142C61.2627 11.7185 61.0106 12.3714 61.0106 13.173C61.0106 13.9746 61.2627 14.634 61.7669 15.1512ZM72.375 14.2009C72.7111 15.4162 73.6226 16.0239 75.1095 16.0239C76.0663 16.0239 76.7903 15.7007 77.2816 15.0542L79.2986 16.2178C78.3418 17.6013 76.9325 18.293 75.0707 18.293C73.4675 18.293 72.181 17.8082 71.2113 16.8385C70.2416 15.8688 69.7568 14.6469 69.7568 13.173C69.7568 11.712 70.2352 10.4966 71.1919 9.52694C72.1487 8.54431 73.377 8.053 74.8768 8.053C76.299 8.053 77.4691 8.54431 78.3871 9.52694C79.318 10.5096 79.7834 11.7249 79.7834 13.173C79.7834 13.4962 79.7511 13.8389 79.6865 14.2009H72.375ZM72.3362 12.2615H77.2816C77.1394 11.6021 76.842 11.1108 76.3895 10.7875C75.9499 10.4643 75.4457 10.3027 74.8768 10.3027C74.2045 10.3027 73.6485 10.4772 73.2089 10.8263C72.7693 11.1625 72.4784 11.6409 72.3362 12.2615ZM83.6439 9.99239C83.8766 9.37179 84.258 8.90633 84.7881 8.59603C85.3312 8.28572 85.9324 8.13057 86.5918 8.13057V10.9233C85.8289 10.8328 85.1437 10.9879 84.536 11.3888C83.9413 11.7896 83.6439 12.4554 83.6439 13.3863V18.0215H81.1421V8.32451H83.6439V9.99239ZM94.6769 8.32451H97.1787V18.0215H94.6769V16.8772C93.927 17.8211 92.8733 18.293 91.5157 18.293C90.2228 18.293 89.1109 17.8017 88.18 16.8191C87.262 15.8235 86.803 14.6082 86.803 13.173C86.803 11.7378 87.262 10.529 88.18 9.54633C89.1109 8.55078 90.2228 8.053 91.5157 8.053C92.8733 8.053 93.927 8.52492 94.6769 9.46876V8.32451ZM90.0612 15.1512C90.5654 15.6554 91.2054 15.9075 91.9812 15.9075C92.7569 15.9075 93.3969 15.6554 93.9012 15.1512C94.4183 14.634 94.6769 13.9746 94.6769 13.173C94.6769 12.3714 94.4183 11.7185 93.9012 11.2142C93.3969 10.697 92.7569 10.4385 91.9812 10.4385C91.2054 10.4385 90.5654 10.697 90.0612 11.2142C89.5569 11.7185 89.3048 12.3714 89.3048 13.173C89.3048 13.9746 89.5569 14.634 90.0612 15.1512Z" fill="white"/>
</svg>