
<svg width="178" height="26" viewBox="0 0 178 26" fill="none" xmlns="http://www.w3.org/2000/svg">
<rect width="3.64322" height="16.3945" transform="matrix(0.706094 0.708118 -0.706094 0.708118 11.921 1.72949)" fill="white"/>
<rect width="3.64322" height="16.3945" transform="matrix(0.706094 -0.708118 0.706094 0.708118 0.345581 13.3398)" fill="white"/>
<path fill-rule="evenodd" clip-rule="evenodd" d="M20.5794 25.8389L8.11511 13.3389L20.5794 0.838867L21.618 1.88041L19.1964 4.30891L28.2 13.3383L19.1964 22.3677L21.6185 24.7968L20.5794 25.8389Z" fill="white"/>
<path d="M24.0632 1.72949L21.4907 4.30932L33.0668 15.9186L35.6393 13.3387L24.0632 1.72949Z" fill="#EAD7A2"/>
<path d="M35.6393 13.3387L33.0668 10.7589L21.4907 22.3682L24.0632 24.948L35.6393 13.3387Z" fill="#EAD7A2"/>
<path d="M55.4918 19.9473H51.9099L46.278 12.5371V19.9473H43.1692V4.13287H46.278V11.1138L51.6846 4.13287H55.2665L49.4319 11.8142L55.4918 19.9473Z" fill="white"/>
<path d="M63.4373 8.65129H66.3434V19.9473H63.4373V18.6822C62.7314 19.7365 61.6126 20.2636 60.0807 20.2636C58.8492 20.2636 57.8279 19.8494 57.017 19.0211C56.221 18.1927 55.823 17.048 55.823 15.5871V8.65129H58.729V15.2256C58.729 15.9787 58.9318 16.5585 59.3373 16.9652C59.7428 17.3568 60.2835 17.5526 60.9593 17.5526C61.7102 17.5526 62.3109 17.3191 62.7615 16.8522C63.212 16.3853 63.4373 15.685 63.4373 14.7512V8.65129Z" fill="white"/>
<path d="M75.1099 8.335C76.6268 8.335 77.9184 8.91486 78.9847 10.0746C80.066 11.2193 80.6067 12.6275 80.6067 14.2993C80.6067 15.9711 80.066 17.3869 78.9847 18.5466C77.9184 19.6913 76.6268 20.2636 75.1099 20.2636C73.533 20.2636 72.3165 19.7139 71.4605 18.6144V19.9473H68.5544V4.13287H71.4605V9.98422C72.3165 8.88474 73.533 8.335 75.1099 8.335ZM72.339 16.6037C72.9248 17.1911 73.6682 17.4848 74.5693 17.4848C75.4704 17.4848 76.2138 17.1911 76.7995 16.6037C77.4002 16.0013 77.7006 15.2331 77.7006 14.2993C77.7006 13.3655 77.4002 12.6049 76.7995 12.0175C76.2138 11.4151 75.4704 11.1138 74.5693 11.1138C73.6682 11.1138 72.9248 11.4151 72.339 12.0175C71.7533 12.6049 71.4605 13.3655 71.4605 14.2993C71.4605 15.2331 71.7533 16.0013 72.339 16.6037Z" fill="white"/>
<path d="M84.6611 15.4967C85.0516 16.9125 86.1104 17.6204 87.8375 17.6204C88.9488 17.6204 89.7899 17.2438 90.3606 16.4908L92.7034 17.8463C91.5921 19.4578 89.9551 20.2636 87.7924 20.2636C85.9301 20.2636 84.4358 19.6988 83.3094 18.5692C82.1831 17.4396 81.6199 16.0163 81.6199 14.2993C81.6199 12.5974 82.1755 11.1816 83.2869 10.052C84.3983 8.90733 85.825 8.335 87.5671 8.335C89.2192 8.335 90.5783 8.90733 91.6446 10.052C92.726 11.1967 93.2666 12.6124 93.2666 14.2993C93.2666 14.6759 93.2291 15.075 93.154 15.4967H84.6611ZM84.616 13.2375H90.3606C90.1954 12.4694 89.8499 11.897 89.3243 11.5205C88.8137 11.144 88.228 10.9557 87.5671 10.9557C86.7862 10.9557 86.1404 11.159 85.6298 11.5657C85.1191 11.9573 84.7812 12.5145 84.616 13.2375Z" fill="white"/>
<path d="M97.7508 10.5942C98.0212 9.87126 98.4642 9.32905 99.08 8.96758C99.7107 8.6061 100.409 8.42537 101.175 8.42537V11.6786C100.289 11.5732 99.493 11.7539 98.7871 12.2208C98.0963 12.6877 97.7508 13.4634 97.7508 14.5478V19.9473H94.8448V8.65129H97.7508V10.5942Z" fill="white"/>
<path d="M110.567 8.65129H113.473V19.9473H110.567V18.6144C109.695 19.7139 108.471 20.2636 106.895 20.2636C105.393 20.2636 104.101 19.6913 103.02 18.5466C101.954 17.3869 101.42 15.9711 101.42 14.2993C101.42 12.6275 101.954 11.2193 103.02 10.0746C104.101 8.91486 105.393 8.335 106.895 8.335C108.471 8.335 109.695 8.88474 110.567 9.98422V8.65129ZM105.205 16.6037C105.791 17.1911 106.534 17.4848 107.435 17.4848C108.336 17.4848 109.08 17.1911 109.665 16.6037C110.266 16.0013 110.567 15.2331 110.567 14.2993C110.567 13.3655 110.266 12.6049 109.665 12.0175C109.08 11.4151 108.336 11.1138 107.435 11.1138C106.534 11.1138 105.791 11.4151 105.205 12.0175C104.619 12.6049 104.326 13.3655 104.326 14.2993C104.326 15.2331 104.619 16.0013 105.205 16.6037Z" fill="white"/>
<path d="M123.938 4.13284C125.349 4.13284 126.528 4.60728 127.475 5.55614C128.421 6.50501 128.894 7.68733 128.894 9.10311C128.894 10.5189 128.421 11.7012 127.475 12.6501C126.528 13.5989 125.349 14.0734 123.938 14.0734H119.883V19.9473H118.306V4.13284H123.938ZM123.938 12.5823C124.914 12.5823 125.717 12.2585 126.348 11.6108C126.994 10.9481 127.317 10.1122 127.317 9.10311C127.317 8.09399 126.994 7.26561 126.348 6.61797C125.717 5.95527 124.914 5.62392 123.938 5.62392H119.883V12.5823H123.938Z" fill="white"/>
<path d="M132.185 10.5264C132.875 9.15582 134.062 8.47053 135.744 8.47053V9.91642C134.723 9.91642 133.874 10.2176 133.198 10.8201C132.523 11.4226 132.185 12.3714 132.185 13.6667V19.9473H130.698V8.65126H132.185V10.5264Z" fill="white"/>
<path d="M146.088 18.524C144.947 19.6536 143.55 20.2184 141.898 20.2184C140.246 20.2184 138.842 19.6536 137.685 18.524C136.544 17.3794 135.973 15.9711 135.973 14.2993C135.973 12.6275 136.544 11.2268 137.685 10.0972C138.842 8.95249 140.246 8.38016 141.898 8.38016C143.55 8.38016 144.947 8.95249 146.088 10.0972C147.245 11.2268 147.823 12.6275 147.823 14.2993C147.823 15.9711 147.245 17.3794 146.088 18.524ZM138.744 17.4848C139.6 18.3433 140.652 18.7725 141.898 18.7725C143.145 18.7725 144.196 18.3433 145.052 17.4848C145.908 16.6112 146.336 15.5494 146.336 14.2993C146.336 13.0492 145.908 11.9949 145.052 11.1364C144.196 10.2628 143.145 9.82605 141.898 9.82605C140.652 9.82605 139.6 10.2628 138.744 11.1364C137.888 11.9949 137.46 13.0492 137.46 14.2993C137.46 15.5494 137.888 16.6112 138.744 17.4848Z" fill="white"/>
<path d="M155.898 8.38016C157.505 8.38016 158.871 8.95249 159.998 10.0972C161.139 11.2418 161.71 12.6425 161.71 14.2993C161.71 15.956 161.139 17.3568 159.998 18.5014C158.871 19.6461 157.505 20.2184 155.898 20.2184C153.9 20.2184 152.383 19.39 151.347 17.7333V24.4657H149.86V8.65126H151.347V10.8653C152.383 9.20854 153.9 8.38016 155.898 8.38016ZM152.631 17.4848C153.487 18.3433 154.539 18.7725 155.785 18.7725C157.032 18.7725 158.083 18.3433 158.939 17.4848C159.795 16.6112 160.223 15.5494 160.223 14.2993C160.223 13.0492 159.795 11.9949 158.939 11.1364C158.083 10.2628 157.032 9.82605 155.785 9.82605C154.539 9.82605 153.487 10.2628 152.631 11.1364C151.775 11.9949 151.347 13.0492 151.347 14.2993C151.347 15.5494 151.775 16.6112 152.631 17.4848Z" fill="white"/>
<path d="M168.935 8.38016C170.602 8.38016 171.947 8.97508 172.968 10.1649C174.004 11.3397 174.522 12.7329 174.522 14.3445C174.522 14.5102 174.507 14.7436 174.477 15.0448H164.588C164.738 16.1895 165.218 17.1007 166.029 17.7785C166.855 18.4412 167.869 18.7725 169.071 18.7725C169.927 18.7725 170.662 18.5993 171.278 18.2529C171.909 17.8914 172.382 17.4245 172.697 16.8522L174.004 17.6203C173.508 18.4186 172.833 19.0512 171.977 19.5181C171.121 19.985 170.144 20.2184 169.048 20.2184C167.276 20.2184 165.834 19.6612 164.723 18.5466C163.611 17.4321 163.056 16.0163 163.056 14.2993C163.056 12.6124 163.604 11.2042 164.7 10.0746C165.797 8.94496 167.208 8.38016 168.935 8.38016ZM168.935 9.82605C167.764 9.82605 166.78 10.18 165.984 10.8879C165.203 11.5807 164.738 12.4844 164.588 13.5989H172.99C172.84 12.4091 172.382 11.4828 171.616 10.8201C170.85 10.1574 169.957 9.82605 168.935 9.82605Z" fill="white"/>
<path d="M176.437 19.9473V3.45508H177.923V19.9473H176.437Z" fill="white"/>
</svg>