<svg width="10" height="10" viewBox="0 0 10 10" fill="none" xmlns="http://www.w3.org/2000/svg">
<path d="M5.86632 5.83594H4.02804C3.87421 5.83594 3.74951 5.96063 3.74951 6.11447V9.7214C3.74951 9.87523 3.87421 9.99993 4.02804 9.99993H5.86632C6.02015 9.99993 6.14485 9.87523 6.14485 9.7214V6.11447C6.14485 5.96063 6.02015 5.83594 5.86632 5.83594ZM5.58779 9.44287H4.30657V6.393H5.58779V9.44287Z" fill="white"/>
<path d="M9.51503 3.64941H7.66281C7.50897 3.64941 7.38428 3.77411 7.38428 3.92794V9.72134C7.38428 9.87517 7.50897 9.99987 7.66281 9.99987H9.51503C9.66886 9.99987 9.79356 9.87517 9.79356 9.72134V3.92794C9.79356 3.77414 9.66886 3.64941 9.51503 3.64941ZM9.2365 9.44281H7.94133V4.20647H9.2365V9.44281Z" fill="white"/>
<path d="M2.23134 7.1875H0.379115C0.225283 7.1875 0.100586 7.3122 0.100586 7.46603V9.72212C0.100586 9.87595 0.225283 10.0006 0.379115 10.0006H2.23134C2.38517 10.0006 2.50986 9.87595 2.50986 9.72212V7.46603C2.50986 7.31222 2.38517 7.1875 2.23134 7.1875ZM1.95281 9.44359H0.657644V7.74456H1.95281V9.44359Z" fill="white"/>
<path d="M9.82139 0.279325C9.77904 0.220948 9.7124 0.185069 9.64035 0.181844L7.10573 0.000795813C6.9519 -0.0107463 6.81785 0.104621 6.8063 0.258426C6.79476 0.412258 6.9101 0.546312 7.06394 0.557854L8.85781 0.679672L5.55989 3.2596L3.03922 1.28205C2.93158 1.1968 2.77791 1.20272 2.67712 1.29596L0.0868236 3.77484C-0.0232925 3.8793 -0.0294767 4.05273 0.0729091 4.16479C0.122596 4.22927 0.200485 4.26563 0.281813 4.26227C0.355277 4.26123 0.425355 4.23119 0.476775 4.1787L2.88605 1.86691L5.37887 3.83052C5.48062 3.91198 5.62528 3.91198 5.72703 3.83052L9.29225 1.05622L9.15292 2.78609C9.15222 2.93733 9.26698 3.06413 9.41753 3.07853H9.43144C9.57501 3.07925 9.69561 2.97071 9.70997 2.82786L9.89102 0.474287C9.90123 0.401809 9.87521 0.328932 9.82139 0.279325Z" fill="white"/>
</svg>
