<svg width="20" height="20" viewBox="0 0 20 20" fill="none" xmlns="http://www.w3.org/2000/svg">
<path d="M11.9004 7.29177C11.7904 6.96427 11.4362 6.78844 11.1095 6.8976L7.19537 8.20844C6.86704 8.31927 6.6912 8.67344 6.8012 9.0001L8.0687 12.7759C8.17954 13.1059 8.5362 13.2776 8.85954 13.1701C12.2929 11.9643 13.4579 11.9301 13.1679 11.0684L11.9004 7.29177ZM9.05537 11.7868L8.18537 9.19594L10.9137 8.2826L11.7837 10.8734L9.05537 11.7868Z" fill="#52F995"/>
<path d="M17.1766 9.04924L15.8674 9.48424L14.9982 6.90091L16.2991 6.46758C18.9541 5.60508 17.6916 1.50591 14.9457 2.40008L13.6382 2.83508L13.1799 1.46341C12.3124 -1.18742 8.22658 0.0709107 9.10491 2.81924L9.56408 4.19424L6.83908 5.10424L6.38074 3.73424C5.51991 1.09174 1.42741 2.33424 2.30658 5.09008L2.76574 6.46341L1.46741 6.89341C-0.75009 7.61341 -0.361757 10.9342 2.04658 11.0617C2.46824 11.1176 2.79658 10.9759 4.12658 10.5267L4.99574 13.1092L3.69408 13.5426C1.43908 14.2784 1.92491 17.6176 4.24074 17.7067C4.69824 17.7751 5.07824 17.6076 6.35241 17.1759L6.81491 18.5584C7.73074 21.1751 11.7591 19.9251 10.8857 17.1901L10.4266 15.8151L13.1591 14.9009L13.6207 16.2842C14.5366 18.8984 18.5657 17.6517 17.6916 14.9159L17.2332 13.5417L18.5307 13.1092C21.1707 12.2792 19.9266 8.15174 17.1766 9.04924ZM18.1441 11.9217L16.2441 12.5542C15.9174 12.6626 15.7391 13.0176 15.8491 13.3451L16.5024 15.3051C16.8741 16.4692 15.1774 16.9492 14.8024 15.8809L14.1466 13.9134C14.0382 13.5917 13.6924 13.4092 13.3549 13.5184L9.43658 14.8284C9.10908 14.9376 8.93324 15.2917 9.04241 15.6192L9.69658 17.5792C10.0691 18.7442 8.37074 19.2234 7.99658 18.1542L7.33908 16.1867C7.22991 15.8576 6.87408 15.6834 6.54908 15.7917C5.31741 16.2067 4.52658 16.4901 4.35741 16.4642C3.30491 16.4209 3.17741 15.0267 4.08408 14.7301L5.98491 14.0976C6.31324 13.9892 6.48991 13.6317 6.38074 13.3051L5.11241 9.53674C5.00324 9.21091 4.65074 9.03674 4.32324 9.14258C2.87158 9.63174 2.28074 9.83841 2.19574 9.82008C2.17408 9.81758 2.15158 9.81508 2.13074 9.81424C1.07574 9.77091 0.950743 8.37508 1.85658 8.08008L3.75241 7.45258C4.08074 7.34424 4.25908 6.98924 4.14908 6.66091L3.49408 4.70174C3.12324 3.54091 4.83574 3.03508 5.19408 4.12591L5.85158 6.09341C5.96074 6.42091 6.31991 6.59841 6.64158 6.48841L10.5516 5.18258C10.8799 5.07258 11.0557 4.71841 10.9466 4.39174L10.2924 2.43174C9.92241 1.27508 11.6332 0.761744 11.9924 1.85674L12.6499 3.82424C12.7591 4.15091 13.1107 4.32924 13.4399 4.21924L15.3349 3.58841C16.4924 3.21008 17.0016 4.92591 15.9082 5.28174L14.0082 5.91424C13.6799 6.02258 13.5032 6.38008 13.6124 6.70674L14.8799 10.4751C14.9899 10.8009 15.3432 10.9792 15.6691 10.8684L17.5649 10.2376C18.7241 9.86008 19.2349 11.5776 18.1441 11.9217Z" fill="#52F995"/>
</svg>
