<svg width="59" height="49" viewBox="0 0 59 49" fill="none" xmlns="http://www.w3.org/2000/svg">
<path d="M55.7648 3.48151C53.6901 1.40534 50.8751 0.239276 47.9401 0.240265C45.0063 0.233344 42.1913 1.39903 40.1212 3.47792L25.8374 17.7618C23.0113 20.5924 21.9308 24.7268 23.011 28.5781C23.3273 29.6993 24.4926 30.3518 25.6138 30.0356C26.735 29.7193 27.3875 28.554 27.0713 27.4328C26.4054 25.0511 27.0735 22.4954 28.8198 20.7444L43.1036 6.4626C45.7741 3.79147 50.1044 3.79098 52.7755 6.46161C55.4467 9.13212 55.4472 13.4624 52.7767 16.1336L38.4929 30.4173C37.5568 31.3546 36.368 31.9989 35.0717 32.2714C33.9312 32.5088 33.1992 33.6258 33.4366 34.7663C33.6408 35.747 34.5065 36.4487 35.5082 36.4456C35.6556 36.4458 35.8027 36.4302 35.9469 36.3993C38.0419 35.9575 39.9628 34.9154 41.4753 33.3999L55.7592 19.1182C60.0787 14.8018 60.0811 7.80107 55.7648 3.48151Z" fill="#2DA660" fill-opacity="0.5"/>
<path d="M35.9276 20.4741C35.6114 19.3529 34.4461 18.7003 33.3249 19.0166C32.2037 19.3329 31.5511 20.4982 31.8674 21.6194C32.5333 24.0011 31.8652 26.5568 30.1188 28.3078L15.8349 42.5917C13.1644 45.2628 8.83411 45.2633 6.16298 42.5927C3.49185 39.9222 3.49136 35.5918 6.16187 32.9207L20.4458 18.6347C21.3804 17.6977 22.5678 17.0534 23.8628 16.7806C25.0051 16.5521 25.7459 15.4409 25.5174 14.2987C25.2889 13.1565 24.1777 12.4156 23.0355 12.6441C23.0215 12.6469 23.0077 12.6498 22.9938 12.6529C20.8985 13.0952 18.9769 14.1373 17.4633 15.6523L3.17942 29.9362C-1.10615 34.2879 -1.05251 41.2897 3.29918 45.5752C7.60341 49.814 14.5125 49.8145 18.8174 45.5762L33.1012 31.2902C35.9274 28.4597 37.0078 24.3252 35.9276 20.4741Z" fill="#2DA660" fill-opacity="0.5"/>
</svg>
