<svg width="102" height="102" viewBox="0 0 102 102" fill="none" xmlns="http://www.w3.org/2000/svg">
<g clip-path="url(#clip0)">
<path d="M81.2163 55.9C76.8951 52.7948 72.1905 50.4047 67.2347 48.7723C73.8239 43.8253 78.0942 35.9488 78.0942 27.0938C78.0942 12.1543 65.94 0 51.0004 0C36.0608 0 23.9067 12.1543 23.9067 27.0938C23.9067 35.9598 28.1875 43.8449 34.7906 48.7909C28.7407 50.7826 23.064 53.8819 18.0955 57.9687C8.98478 65.4627 2.65022 75.9155 0.258997 87.4018C-0.490463 91.0009 0.407415 94.6976 2.72194 97.5437C5.02511 100.376 8.44031 102 12.0916 102H53.1918C55.3924 102 57.1762 100.216 57.1762 98.0156C57.1762 95.8151 55.3924 94.0312 53.1918 94.0312H12.0916C10.3907 94.0312 9.36449 93.0818 8.90429 92.516C8.10961 91.5388 7.80202 90.2668 8.0604 89.0259C12.1954 69.1648 29.7137 54.6565 49.9442 54.1672C50.2946 54.1807 50.6466 54.1875 51.0004 54.1875C51.3566 54.1875 51.7114 54.1805 52.0644 54.1668C60.9229 54.3764 69.3732 57.2021 76.566 62.371C78.3527 63.6552 80.8426 63.2474 82.1267 61.4608C83.4109 59.6738 83.0033 57.1842 81.2163 55.9ZM51.9704 46.1944C51.6475 46.1885 51.3241 46.1855 51.0004 46.1855C50.6789 46.1855 50.3573 46.1887 50.0362 46.1946C39.9368 45.6908 31.8754 37.3161 31.8754 27.0938C31.8754 16.5481 40.4548 7.96875 51.0004 7.96875C61.5461 7.96875 70.1254 16.5481 70.1254 27.0938C70.1254 37.3141 62.067 45.6876 51.9704 46.1944Z" fill="#2DA660"/>
<path d="M90.7014 85.067L100.833 74.9353C102.389 73.3792 102.389 70.8563 100.833 69.3004C99.2769 67.7443 96.7542 67.7443 95.1983 69.3004L85.0665 79.4321L74.9346 69.3002C73.3785 67.7441 70.8558 67.7441 69.2999 69.3002C67.744 70.8563 67.7438 73.3792 69.2999 74.9351L79.4316 85.067L69.2999 95.1986C67.7438 96.7547 67.7438 99.2776 69.2999 100.834C70.0778 101.612 71.0974 102.001 72.1172 102.001C73.137 102.001 74.1566 101.612 74.9346 100.834L85.0665 90.7019L95.1983 100.834C95.9763 101.612 96.9959 102.001 98.0157 102.001C99.0355 102.001 100.055 101.612 100.833 100.834C102.389 99.2776 102.389 96.7547 100.833 95.1988L90.7014 85.067Z" fill="#2DA660"/>
</g>
<defs>
<clipPath id="clip0">
<rect width="102" height="102" fill="white"/>
</clipPath>
</defs>
</svg>
