<svg width="102" height="102" viewBox="0 0 102 102" fill="none" xmlns="http://www.w3.org/2000/svg">
<g clip-path="url(#clip0)">
<path d="M50.2732 49.1338C57.0233 49.1338 62.8675 46.7128 67.6441 41.9362C72.4191 37.1604 74.8409 31.317 74.8409 24.5661C74.8409 17.8176 72.4199 11.9733 67.6433 7.19599C62.8668 2.42097 57.0225 0 50.2732 0C43.5224 0 37.6789 2.42097 32.9031 7.19676C28.1273 11.9726 25.7056 17.8168 25.7056 24.5661C25.7056 31.317 28.1273 37.1612 32.9031 41.937C37.6804 46.712 43.5247 49.1338 50.2732 49.1338ZM37.1303 11.4232C40.7948 7.75862 45.0935 5.97733 50.2732 5.97733C55.4521 5.97733 59.7516 7.75862 63.417 11.4232C67.0815 15.0885 68.8635 19.388 68.8635 24.5661C68.8635 29.7458 67.0815 34.0446 63.417 37.7099C59.7516 41.3752 55.4521 43.1565 50.2732 43.1565C45.0951 43.1565 40.7963 41.3744 37.1303 37.7099C33.465 34.0453 31.6829 29.7458 31.6829 24.5661C31.6829 19.388 33.465 15.0885 37.1303 11.4232Z" fill="#2DA660"/>
<path d="M93.2599 78.4363C93.1222 76.4488 92.8436 74.2808 92.4334 71.9913C92.0194 69.6848 91.4864 67.5042 90.8483 65.5113C90.1884 63.4514 89.2926 61.4172 88.1837 59.4678C87.0343 57.4445 85.6834 55.6827 84.1674 54.2329C82.5823 52.7162 80.6414 51.4967 78.3971 50.6073C76.1606 49.7225 73.682 49.2742 71.0307 49.2742C69.9895 49.2742 68.9825 49.7014 67.0378 50.9676C65.8409 51.7481 64.4409 52.6508 62.8783 53.6492C61.5422 54.5006 59.7321 55.2982 57.4963 56.0204C55.315 56.7262 53.1003 57.0842 50.9135 57.0842C48.7284 57.0842 46.5136 56.7262 44.3308 56.0204C42.0973 55.299 40.2865 54.5014 38.9527 53.65C37.4048 52.6609 36.0041 51.7582 34.7893 50.9668C32.8461 49.7007 31.8392 49.2734 30.7979 49.2734C28.1458 49.2734 25.6681 49.7225 23.4323 50.608C21.1895 51.496 19.2479 52.7154 17.6612 54.2337C16.1453 55.6842 14.7943 57.4453 13.6457 59.4678C12.5383 61.4172 11.6418 63.4506 10.9819 65.5121C10.3446 67.505 9.81152 69.6848 9.39752 71.9913C8.98663 74.2777 8.70882 76.4465 8.57108 78.4387C8.43567 80.3865 8.36719 82.4137 8.36719 84.4619C8.36719 89.7863 10.0598 94.0968 13.3975 97.2757C16.6939 100.413 21.0549 102.003 26.3599 102.003H75.4734C80.7768 102.003 85.1379 100.413 88.4351 97.2757C91.7735 94.0991 93.4661 89.7871 93.4661 84.4611C93.4653 82.4059 93.3961 80.3787 93.2599 78.4363ZM84.3137 92.945C82.1356 95.0182 79.2438 96.0259 75.4727 96.0259H26.3599C22.588 96.0259 19.6962 95.0182 17.5188 92.9458C15.3826 90.9124 14.3445 88.1366 14.3445 84.4619C14.3445 82.5507 14.4076 80.6635 14.5336 78.8519C14.6566 77.0745 14.9079 75.122 15.2807 73.0473C15.6488 70.9983 16.1172 69.0754 16.6744 67.3346C17.2091 65.6654 17.9382 64.0125 18.8425 62.4203C19.7055 60.9028 20.6985 59.6009 21.7942 58.5519C22.8191 57.5706 24.1109 56.7675 25.633 56.1651C27.0408 55.608 28.6229 55.3029 30.3404 55.257C30.5497 55.3683 30.9224 55.5807 31.5263 55.9745C32.7551 56.7753 34.1714 57.6889 35.7371 58.6888C37.5021 59.8141 39.776 60.8304 42.4927 61.7075C45.2701 62.6055 48.1027 63.0615 50.9143 63.0615C53.7259 63.0615 56.5594 62.6055 59.3352 61.7082C62.0542 60.8297 64.3273 59.8141 66.0946 58.6873C67.6969 57.6632 69.0735 56.776 70.3023 55.9745C70.9062 55.5815 71.2789 55.3683 71.4883 55.257C73.2065 55.3029 74.7886 55.608 76.1972 56.1651C77.7185 56.7675 79.0103 57.5713 80.0352 58.5519C81.1309 59.6001 82.1239 60.902 82.9869 62.4211C83.892 64.0125 84.6219 65.6661 85.1558 67.3338C85.7137 69.077 86.183 70.9991 86.5503 73.0466C86.9223 75.1251 87.1744 77.0784 87.2974 78.8527V78.8542C87.4242 80.6589 87.488 82.5452 87.4888 84.4619C87.488 88.1373 86.4499 90.9124 84.3137 92.945Z" fill="#2DA660"/>
</g>
<defs>
<clipPath id="clip0">
<rect width="102" height="102" fill="white"/>
</clipPath>
</defs>
</svg>
