<svg width="54" height="87" viewBox="0 0 54 87" fill="none" xmlns="http://www.w3.org/2000/svg">
<path d="M0.0800005 43.48C0.0800005 29.4 2.4 18.64 7.04 11.2C11.68 3.76 18.28 0.0399995 26.84 0.0399995C35.32 0.0399995 41.88 3.76 46.52 11.2C51.24 18.64 53.6 29.4 53.6 43.48C53.6 57.48 51.24 68.2 46.52 75.64C41.88 83.08 35.32 86.8 26.84 86.8C18.36 86.8 11.76 83.08 7.04 75.64C2.4 68.2 0.0800005 57.48 0.0800005 43.48ZM45.08 43.48C45.08 38.68 44.76 34.12 44.12 29.8C43.56 25.4 42.56 21.52 41.12 18.16C39.68 14.8 37.8 12.12 35.48 10.12C33.16 8.12 30.28 7.11999 26.84 7.11999C23.32 7.11999 20.4 8.12 18.08 10.12C15.76 12.12 13.88 14.8 12.44 18.16C11.08 21.52 10.08 25.4 9.44 29.8C8.88 34.12 8.6 38.68 8.6 43.48C8.6 48.28 8.88 52.88 9.44 57.28C10.08 61.6 11.08 65.44 12.44 68.8C13.88 72.08 15.76 74.72 18.08 76.72C20.4 78.72 23.32 79.72 26.84 79.72C30.28 79.72 33.16 78.72 35.48 76.72C37.8 74.72 39.68 72.08 41.12 68.8C42.56 65.44 43.56 61.6 44.12 57.28C44.76 52.88 45.08 48.28 45.08 43.48Z" fill="#109B67"/>
</svg>
